<svg width="10" height="13" viewBox="0 0 16 22" fill="none" xmlns="http://www.w3.org/2000/svg">
    <path
        d="M0.386186 22V0.181818H8.01403C9.53391 0.181818 10.7875 0.444602 11.7747 0.970171C12.7619 1.48864 13.497 2.18821 13.9799 3.06889C14.4629 3.94247 14.7044 4.91193 14.7044 5.97727C14.7044 6.91477 14.5375 7.68892 14.2037 8.29972C13.877 8.91051 13.4437 9.39347 12.9039 9.74858C12.3713 10.1037 11.7924 10.3665 11.1674 10.5369V10.75C11.835 10.7926 12.5062 11.027 13.1809 11.4531C13.8556 11.8793 14.4203 12.4901 14.8748 13.2855C15.3294 14.081 15.5566 15.054 15.5566 16.2045C15.5566 17.2983 15.3081 18.282 14.8109 19.1555C14.3137 20.0291 13.5289 20.7216 12.4565 21.233C11.3841 21.7443 9.98846 22 8.26971 22H0.386186ZM3.02823 19.6562H8.26971C9.99556 19.6562 11.2207 19.3224 11.9451 18.6548C12.6767 17.9801 13.0424 17.1634 13.0424 16.2045C13.0424 15.4659 12.8542 14.7841 12.4778 14.1591C12.1014 13.527 11.5652 13.0227 10.8691 12.6463C10.1731 12.2628 9.34925 12.071 8.39755 12.071H3.02823V19.6562ZM3.02823 9.76989H7.9288C8.72425 9.76989 9.44158 9.61364 10.0808 9.30114C10.7271 8.98864 11.2385 8.5483 11.6149 7.98011C11.9984 7.41193 12.1902 6.74432 12.1902 5.97727C12.1902 5.01847 11.8564 4.20526 11.1887 3.53764C10.5211 2.86293 9.46289 2.52557 8.01403 2.52557H3.02823V9.76989Z"
        fill="white" />
    <path
        d="M0.386186 22H-0.613814V23H0.386186V22ZM0.386186 0.181818V-0.818182H-0.613814V0.181818H0.386186ZM11.7747 0.970171L11.3047 1.85289L11.3097 1.8555L11.7747 0.970171ZM13.9799 3.06889L13.1031 3.54973L13.1048 3.55272L13.9799 3.06889ZM14.2037 8.29972L13.3261 7.82013L13.3219 7.82806L14.2037 8.29972ZM12.9039 9.74858L12.3543 8.91315L12.3492 8.91653L12.9039 9.74858ZM11.1674 10.5369L10.9043 9.57217L10.1674 9.77314V10.5369H11.1674ZM11.1674 10.75H10.1674V11.6882L11.1037 11.748L11.1674 10.75ZM13.1809 11.4531L12.6469 12.2986L12.6469 12.2986L13.1809 11.4531ZM14.8748 13.2855L14.0066 13.7816L14.8748 13.2855ZM14.8109 19.1555L15.68 19.6502L15.68 19.6502L14.8109 19.1555ZM12.4565 21.233L12.0261 20.3303L12.0261 20.3303L12.4565 21.233ZM3.02823 19.6562H2.02823V20.6562H3.02823V19.6562ZM11.9451 18.6548L12.6228 19.3902L12.6231 19.3899L11.9451 18.6548ZM12.4778 14.1591L11.6186 14.6708L11.6212 14.675L12.4778 14.1591ZM10.8691 12.6463L10.3865 13.5222L10.3934 13.5259L10.8691 12.6463ZM3.02823 12.071V11.071H2.02823V12.071H3.02823ZM3.02823 9.76989H2.02823V10.7699H3.02823V9.76989ZM10.0808 9.30114L9.64548 8.40084L9.64158 8.40275L10.0808 9.30114ZM11.6149 7.98011L10.786 7.42062L10.7812 7.42782L11.6149 7.98011ZM11.1887 3.53764L10.4779 4.24101L10.4816 4.24475L11.1887 3.53764ZM3.02823 2.52557V1.52557H2.02823V2.52557H3.02823ZM1.38619 22V0.181818H-0.613814V22H1.38619ZM0.386186 1.18182H8.01403V-0.818182H0.386186V1.18182ZM8.01403 1.18182C9.42615 1.18182 10.5047 1.42697 11.3048 1.85287L12.2446 0.0874665C11.0702 -0.537766 9.64167 -0.818182 8.01403 -0.818182V1.18182ZM11.3097 1.8555C12.1428 2.29301 12.725 2.86015 13.1031 3.54972L14.8567 2.58806C14.269 1.51627 13.381 0.684261 12.2396 0.0848379L11.3097 1.8555ZM13.1048 3.55272C13.5003 4.26823 13.7044 5.06942 13.7044 5.97727H15.7044C15.7044 4.75444 15.4254 3.61671 14.8551 2.58506L13.1048 3.55272ZM13.7044 5.97727C13.7044 6.80293 13.5565 7.39861 13.3262 7.82015L15.0812 8.77928C15.5184 7.97923 15.7044 7.02662 15.7044 5.97727H13.7044ZM13.3219 7.82806C13.068 8.30271 12.7448 8.65628 12.3543 8.91316L13.4536 10.584C14.1426 10.1307 14.6859 9.51831 15.0854 8.77137L13.3219 7.82806ZM12.3492 8.91653C11.9071 9.2113 11.4269 9.42965 10.9043 9.57217L11.4306 11.5017C12.158 11.3033 12.8355 10.9961 13.4586 10.5806L12.3492 8.91653ZM10.1674 10.5369V10.75H12.1674V10.5369H10.1674ZM11.1037 11.748C11.5748 11.778 12.0865 11.9447 12.6469 12.2986L13.7149 10.6076C12.9259 10.1093 12.0953 9.80719 11.2311 9.75203L11.1037 11.748ZM12.6469 12.2986C13.1641 12.6252 13.6211 13.107 14.0066 13.7816L15.7431 12.7894C15.2195 11.8731 14.5472 11.1333 13.7149 10.6076L12.6469 12.2986ZM14.0066 13.7816C14.3553 14.392 14.5566 15.1841 14.5566 16.2045H16.5566C16.5566 14.9238 16.3034 13.7699 15.7431 12.7894L14.0066 13.7816ZM14.5566 16.2045C14.5566 17.1406 14.3457 17.9512 13.9418 18.6609L15.68 19.6502C16.2704 18.6127 16.5566 17.456 16.5566 16.2045H14.5566ZM13.9418 18.6609C13.5631 19.3264 12.9485 19.8905 12.0261 20.3303L12.8869 22.1356C14.1094 21.5527 15.0644 20.7319 15.68 19.6502L13.9418 18.6609ZM12.0261 20.3303C11.1343 20.7555 9.90108 21 8.26971 21V23C10.0758 23 11.6338 22.7331 12.8869 22.1356L12.0261 20.3303ZM8.26971 21H0.386186V23H8.26971V21ZM3.02823 20.6562H8.26971V18.6562H3.02823V20.6562ZM8.26971 20.6562C10.0741 20.6562 11.6173 20.3169 12.6228 19.3902L11.2675 17.9195C10.8241 18.328 9.91701 18.6562 8.26971 18.6562V20.6562ZM12.6231 19.3899C13.5511 18.534 14.0424 17.4543 14.0424 16.2045H12.0424C12.0424 16.8724 11.8022 17.4262 11.2672 17.9198L12.6231 19.3899ZM14.0424 16.2045C14.0424 15.2865 13.8059 14.4259 13.3344 13.6432L11.6212 14.675C11.9026 15.1423 12.0424 15.6453 12.0424 16.2045H14.0424ZM13.337 13.6474C12.8613 12.8486 12.1871 12.2222 11.3448 11.7667L10.3934 13.5259C10.9432 13.8232 11.3415 14.2053 11.6186 14.6707L13.337 13.6474ZM11.3517 11.7705C10.4813 11.2908 9.48476 11.071 8.39755 11.071V13.071C9.21375 13.071 9.86496 13.2347 10.3865 13.5221L11.3517 11.7705ZM8.39755 11.071H3.02823V13.071H8.39755V11.071ZM2.02823 12.071V19.6562H4.02823V12.071H2.02823ZM3.02823 10.7699H7.9288V8.76989H3.02823V10.7699ZM7.9288 10.7699C8.85836 10.7699 9.72863 10.5864 10.52 10.1995L9.64158 8.40275C9.15454 8.64086 8.59015 8.76989 7.9288 8.76989V10.7699ZM10.5161 10.2014C11.315 9.81512 11.9676 9.25834 12.4485 8.53241L10.7812 7.42782C10.5093 7.83825 10.1392 8.16215 9.64549 8.40085L10.5161 10.2014ZM12.4437 8.53959C12.9518 7.78686 13.1902 6.91909 13.1902 5.97727H11.1902C11.1902 6.56955 11.045 7.037 10.786 7.42064L12.4437 8.53959ZM13.1902 5.97727C13.1902 4.75787 12.7542 3.68893 11.8959 2.83054L10.4816 4.24475C10.9585 4.72158 11.1902 5.27906 11.1902 5.97727H13.1902ZM11.8996 2.83429C10.9653 1.89002 9.59177 1.52557 8.01403 1.52557V3.52557C9.33402 3.52557 10.077 3.83583 10.4779 4.241L11.8996 2.83429ZM8.01403 1.52557H3.02823V3.52557H8.01403V1.52557ZM2.02823 2.52557V9.76989H4.02823V2.52557H2.02823Z"
        fill="white" />
</svg>
    