<svg width="488" height="156" viewBox="0 0 488 156" fill="none" xmlns="http://www.w3.org/2000/svg">
    <path opacity="0.7" d="M152.381 59.1719C151.635 56.5795 150.587 54.2891 149.238 52.3004C147.888 50.2763 146.237 48.5717 144.284 47.1868C142.366 45.7663 140.165 44.6832 137.679 43.9375C135.229 43.1918 132.512 42.8189 129.529 42.8189C123.954 42.8189 119.053 44.2038 114.827 46.9737C110.637 49.7436 107.37 53.7741 105.026 59.0653C102.683 64.321 101.511 70.7486 101.511 78.348C101.511 85.9474 102.665 92.4105 104.973 97.7372C107.281 103.064 110.548 107.13 114.774 109.935C119 112.705 123.989 114.09 129.742 114.09C134.962 114.09 139.419 113.167 143.112 111.32C146.841 109.438 149.682 106.793 151.635 103.384C153.624 99.9744 154.618 95.9439 154.618 91.2919L159.305 91.9844H131.18V74.6193H176.83V88.3622C176.83 97.9503 174.806 106.189 170.758 113.078C166.71 119.932 161.134 125.223 154.032 128.952C146.93 132.645 138.798 134.491 129.636 134.491C119.408 134.491 110.424 132.237 102.683 127.727C94.9411 123.181 88.9041 116.736 84.5717 108.391C80.2749 100.01 78.1264 90.0668 78.1264 78.5611C78.1264 69.7187 79.4048 61.8352 81.9616 54.9105C84.554 47.9503 88.1761 42.0554 92.8281 37.2259C97.4801 32.3963 102.896 28.7209 109.075 26.1996C115.254 23.6783 121.947 22.4176 129.156 22.4176C135.335 22.4176 141.088 23.3232 146.415 25.1342C151.741 26.9098 156.464 29.4311 160.584 32.6982C164.739 35.9652 168.13 39.8537 170.758 44.3636C173.386 48.8381 175.072 53.7741 175.818 59.1719H152.381ZM185.313 42.9254V23.9091H274.908V42.9254H241.51V133H218.711V42.9254H185.313ZM289.663 23.9091H318.108L348.15 97.2045H349.429L379.471 23.9091H407.916V133H385.544V61.995H384.638L356.407 132.467H341.172L312.941 61.7287H312.035V133H289.663V23.9091Z" fill="#2B2828"/>
    </svg>
    