<?xml version="1.0" standalone="no"?>
<!DOCTYPE svg PUBLIC "-//W3C//DTD SVG 20010904//EN" "http://www.w3.org/TR/2001/REC-SVG-20010904/DTD/svg10.dtd">
<svg version="1.0" xmlns="http://www.w3.org/2000/svg"
    width="150" height="150" viewBox="0 0 1586.000000 1920.000000"
    preserveAspectRatio="xMidYMid meet">

    <g transform="translate(0.000000,1920.000000) scale(0.100000,-0.100000)"
        fill="#ffffff" stroke="none">
        <path
            d="M4170 18482 c0 -308 81 -1053 122 -1125 12 -20 13 -18 16 26 2 26 -8
152 -22 280 -15 128 -35 324 -46 437 -22 225 -58 512 -65 519 -3 2 -5 -59 -5
-137z" />
        <path
            d="M4697 17962 c-21 -112 -23 -299 -3 -347 21 -50 38 -45 29 8 -5 23 -8
129 -7 235 0 105 0 192 -1 192 -1 0 -9 -40 -18 -88z" />
        <path
            d="M5599 17898 c-35 -40 -160 -178 -278 -308 -118 -129 -236 -261 -262
-293 -48 -57 -62 -97 -35 -97 25 0 334 333 446 480 60 80 203 290 197 290 -2
0 -33 -33 -68 -72z" />
        <path
            d="M3135 17810 c18 -64 82 -223 120 -300 59 -116 158 -278 273 -445 73
-104 98 -134 100 -118 4 29 -33 101 -143 273 -111 175 -181 294 -281 477 -42
76 -72 127 -69 113z" />
        <path
            d="M2285 17690 c14 -47 102 -218 150 -291 125 -188 377 -482 628 -733
120 -120 172 -165 179 -158 18 18 -22 69 -232 297 -299 327 -551 634 -680 830
-29 44 -49 69 -45 55z" />
        <path
            d="M3580 17686 c0 -16 55 -113 122 -212 79 -119 167 -217 175 -196 3 8
-6 26 -20 40 -13 15 -73 95 -132 177 -126 175 -145 200 -145 191z" />
        <path
            d="M6159 17525 c-196 -183 -367 -374 -516 -575 -81 -110 -168 -249 -160
-256 16 -16 50 16 117 109 110 152 208 273 365 452 77 88 178 205 224 260 46
55 91 108 99 118 38 44 -7 7 -129 -108z" />
        <path
            d="M5457 17358 c-171 -241 -256 -383 -240 -399 6 -6 40 39 83 108 130
208 260 423 256 423 -2 0 -47 -60 -99 -132z" />
        <path
            d="M7220 17114 c-30 -20 -210 -128 -400 -241 -447 -267 -507 -305 -552
-346 -35 -32 -51 -77 -29 -77 6 0 49 27 98 59 48 33 167 105 263 162 282 165
489 307 645 443 51 45 44 45 -25 0z" />
        <path
            d="M6243 17003 c-28 -38 -91 -110 -138 -161 -48 -50 -85 -97 -83 -103 5
-16 120 101 181 183 53 73 102 148 95 148 -2 0 -26 -30 -55 -67z" />
        <path d="M3068 16953 c17 -32 186 -186 190 -173 5 15 -7 28 -110 116 -50 43
-86 68 -80 57z" />
        <path
            d="M4384 16818 c-77 -90 -162 -235 -223 -382 -53 -128 -165 -471 -187
-575 l-17 -81 -118 0 c-64 0 -151 -7 -193 -14 -263 -51 -744 -283 -917 -443
-52 -48 -76 -93 -51 -93 5 0 14 -10 19 -23 21 -46 138 -180 217 -249 154 -134
377 -265 548 -324 65 -22 168 -44 281 -61 37 -6 37 -6 30 -42 -12 -53 -7 -340
7 -456 33 -278 92 -475 172 -577 36 -47 52 -47 158 -8 250 91 541 306 686 506
l21 29 104 -50 104 -49 0 -65 c2 -155 152 -384 314 -479 25 -15 53 -34 62 -43
41 -41 191 -81 304 -80 87 0 139 15 204 55 47 30 55 44 13 22 -85 -44 -257
-59 -359 -32 -116 31 -277 141 -366 251 -109 135 -192 379 -119 350 58 -23
271 -78 402 -104 168 -34 173 -37 238 -125 20 -27 38 -44 40 -38 3 9 -22 69
-45 113 -2 4 34 4 80 2 91 -6 170 3 148 17 -11 6 -11 12 -1 31 25 45 1 253
-45 399 -4 13 2 15 32 12 37 -3 36 -3 -22 26 -120 58 -194 175 -203 317 -5 98
10 159 44 182 23 14 32 15 77 3 195 -49 375 -226 533 -524 l57 -108 -5 -96
c-9 -160 -52 -249 -186 -380 -82 -80 -81 -82 10 -19 60 42 121 113 157 184 52
103 67 258 32 323 -10 19 -24 53 -31 75 -40 124 -143 280 -264 400 -75 74
-109 99 -194 143 -82 43 -110 53 -142 51 -39 -3 -40 -3 -70 58 -17 33 -57 90
-91 126 l-60 66 43 11 c182 46 448 190 639 346 96 78 208 199 268 288 89 132
165 306 134 306 -5 0 -23 -33 -41 -74 -72 -160 -204 -334 -345 -457 -200 -174
-455 -316 -746 -415 -11 -3 -6 -10 15 -23 17 -10 47 -38 66 -62 38 -46 128
-176 128 -184 0 -2 -13 -25 -29 -51 -52 -82 -51 -206 4 -329 25 -58 85 -129
125 -150 23 -12 29 -27 52 -127 45 -194 53 -258 35 -301 -15 -35 -18 -37 -64
-37 -87 0 -497 78 -649 124 -168 50 -374 140 -374 162 0 27 -15 13 -70 -63
-127 -175 -374 -359 -648 -482 -50 -22 -99 -41 -107 -41 -18 0 -83 127 -113
220 -61 185 -95 454 -90 715 2 138 0 181 -9 174 -7 -7 -48 -1 -118 16 -379 93
-740 325 -939 601 l-36 52 47 42 c99 87 389 248 603 336 197 80 315 106 525
113 129 4 169 8 142 14 l-39 8 8 42 c8 50 159 500 203 606 59 140 205 381 231
381 16 0 133 -73 202 -127 92 -70 264 -247 341 -349 99 -132 169 -273 223
-449 l24 -80 -6 61 -6 60 99 37 c136 51 229 74 384 97 280 42 519 37 773 -16
190 -39 182 -38 171 -26 -15 16 -156 60 -249 77 -131 25 -316 34 -471 24 -285
-19 -454 -59 -701 -165 -7 -3 -18 20 -28 56 -26 91 -107 244 -183 345 -131
174 -368 390 -493 450 -30 14 -63 30 -72 36 -23 12 -22 12 -44 -13z" />
        <path
            d="M1570 16718 c247 -151 394 -251 525 -358 82 -67 185 -140 197 -140
22 0 -4 26 -139 135 -181 147 -321 241 -479 323 -121 61 -171 81 -104 40z" />
        <path
            d="M8535 16646 c-350 -121 -498 -183 -1050 -439 -441 -205 -505 -236
-532 -263 -30 -30 -25 -42 9 -21 12 8 41 20 63 27 96 28 202 73 555 233 206
93 470 211 585 262 269 118 619 276 624 281 11 10 -31 -3 -254 -80z" />
        <path
            d="M6870 16315 c-86 -51 -148 -100 -138 -110 4 -4 57 29 118 74 62 45
108 81 104 81 -5 -1 -43 -21 -84 -45z" />
        <path
            d="M1480 16056 c0 -2 21 -16 48 -32 53 -30 208 -129 482 -307 201 -131
260 -162 290 -152 26 8 25 22 -1 30 -11 4 -107 64 -212 134 -247 164 -306 199
-452 264 -132 59 -155 68 -155 63z" />
        <path
            d="M7541 15474 c-118 -18 -283 -34 -357 -34 -61 0 -93 -13 -56 -22 48
-13 436 34 502 61 32 12 16 12 -89 -5z" />
        <path
            d="M10530 15113 c-92 -10 -353 -56 -419 -74 -69 -18 -301 -113 -394
-161 -23 -11 -65 -36 -94 -55 -58 -39 -75 -43 -508 -107 l-220 -32 -3 -87 -3
-86 -86 -3 c-79 -3 -87 -5 -105 -29 -50 -67 -41 -188 19 -248 32 -32 36 -33
87 -28 47 5 53 3 50 -11 -8 -38 -24 -471 -25 -667 -1 -115 4 -270 10 -342 6
-73 16 -193 22 -265 13 -158 30 -253 58 -328 12 -30 17 -56 12 -58 -5 -2 34
-44 88 -95 79 -75 96 -98 99 -125 1 -18 16 -67 33 -108 16 -42 28 -78 27 -79
-6 -5 -403 152 -615 243 -292 125 -380 152 -518 159 l-110 6 -125 121 c-69 67
-206 194 -305 281 -251 223 -250 221 -340 305 -251 233 -438 375 -661 503 -84
49 -135 64 -102 30 16 -15 15 -21 -19 -86 -23 -43 -65 -98 -114 -148 -42 -43
-67 -73 -55 -67 48 25 154 145 187 211 l35 68 109 -69 c136 -84 203 -133 325
-236 174 -148 380 -329 380 -336 0 -3 -37 -21 -82 -39 -46 -19 -108 -47 -138
-63 -69 -38 -191 -120 -186 -125 2 -2 64 26 137 63 187 93 288 136 310 129 31
-10 22 -20 -33 -32 -55 -13 -190 -77 -208 -98 -5 -6 48 9 118 36 70 26 136 50
147 53 16 4 56 -26 183 -139 252 -223 402 -367 402 -384 0 -9 -21 -27 -47 -41
-59 -31 -138 -103 -183 -166 l-34 -49 62 57 c34 31 77 68 95 82 35 27 177 107
177 101 0 -3 -25 -23 -55 -45 -64 -47 -175 -157 -224 -220 l-35 -45 45 41 c24
22 75 68 112 102 38 34 101 87 141 117 l73 55 77 -10 c116 -15 136 -22 439
-151 153 -65 282 -119 288 -119 25 0 2 -18 -57 -44 -108 -48 -207 -121 -298
-217 -48 -51 -84 -94 -82 -97 3 -2 15 7 28 21 76 82 279 226 393 278 90 41
110 36 38 -8 -60 -38 -127 -87 -108 -81 6 2 55 25 110 52 l100 48 80 -25 c44
-14 98 -30 120 -36 34 -9 45 -19 73 -66 19 -31 56 -83 83 -115 l49 -59 -29
-15 c-58 -30 -61 -39 -61 -152 0 -88 3 -107 18 -122 10 -10 24 -48 31 -83 15
-73 36 -129 49 -129 5 0 32 -46 61 -102 60 -122 147 -236 216 -287 l50 -36
-55 65 c-80 95 -123 156 -169 240 -44 81 -48 92 -28 84 7 -2 23 -26 35 -52 12
-26 34 -61 48 -77 22 -26 20 -20 -10 38 -20 37 -33 67 -30 67 18 0 45 -26 68
-65 32 -54 42 -58 21 -9 -18 44 -18 45 -1 38 8 -3 17 -15 20 -27 3 -12 12 -31
21 -42 l16 -20 -4 20 c-3 11 -8 28 -12 38 -7 16 -5 16 19 6 14 -7 26 -18 26
-26 0 -25 48 -108 80 -138 l32 -30 -42 77 c-23 43 -40 84 -37 90 2 7 13 -8 24
-33 12 -26 26 -50 32 -53 15 -10 13 4 -4 34 -26 45 -19 48 50 29 113 -31 260
-43 525 -44 220 0 272 3 383 23 70 12 131 22 134 22 4 0 -15 -23 -42 -52 l-50
-51 40 23 c22 12 57 40 78 61 21 22 46 39 55 39 9 0 28 3 42 7 20 5 15 -2 -23
-35 -27 -23 -44 -42 -40 -42 14 0 96 54 112 73 13 17 118 53 127 45 2 -3 -15
-19 -39 -36 -23 -17 -60 -47 -82 -67 l-40 -36 50 27 c60 33 110 67 150 105 26
24 153 75 162 65 2 -2 -104 -74 -237 -161 -132 -86 -240 -159 -240 -161 0 -8
179 86 271 142 118 71 206 134 243 173 16 17 56 39 92 52 35 12 61 25 59 28
-2 4 26 17 62 29 l65 23 52 -25 c28 -14 75 -47 105 -73 30 -26 49 -38 43 -28
-18 34 -88 110 -116 124 -14 8 -26 17 -26 21 0 7 104 50 120 50 8 0 187 -206
248 -285 19 -25 21 -26 11 -5 -27 56 -124 194 -175 249 l-54 59 45 17 45 18
47 -39 c27 -21 100 -88 163 -147 63 -60 133 -123 155 -140 38 -30 37 -29 -15
32 -80 93 -207 221 -267 268 l-53 41 55 31 c64 36 74 34 129 -31 46 -53 46
-35 1 32 -20 29 -34 54 -33 55 2 1 27 16 56 34 l54 32 94 -88 c52 -48 109 -99
127 -113 l31 -25 -24 35 c-13 19 -63 75 -111 123 -85 88 -86 89 -64 103 20 13
28 13 66 -2 51 -20 108 -54 164 -98 l40 -31 -23 31 c-33 48 -90 94 -145 118
l-48 22 55 38 55 38 213 -175 c244 -199 446 -378 631 -556 l128 -124 -42 -21
-41 -21 -74 72 c-70 68 -76 71 -111 66 -118 -16 -221 -62 -389 -174 -117 -78
-276 -228 -307 -290 -18 -36 -18 -37 0 -60 10 -13 44 -49 75 -79 l57 -55 -40
-45 c-88 -100 -197 -255 -187 -266 2 -1 33 34 70 79 117 144 180 209 191 198
8 -8 2 -21 -19 -43 -45 -48 -87 -106 -119 -163 -34 -59 -33 -59 79 73 49 56
91 102 95 102 4 0 18 -12 32 -26 13 -15 65 -58 114 -97 50 -38 89 -73 88 -76
-1 -4 7 -8 18 -8 12 -1 18 4 17 12 -7 33 197 228 337 322 70 47 203 115 260
133 41 13 68 30 48 30 -6 0 -23 21 -38 46 -15 25 -55 81 -90 124 l-64 78 47
12 47 12 60 -65 c365 -397 449 -496 653 -774 l140 -191 -51 -7 c-60 -9 -187
-48 -226 -71 -14 -8 -18 -13 -8 -10 125 39 203 58 254 63 61 6 61 6 77 -26
l17 -31 -53 0 c-78 0 -184 -18 -260 -42 -37 -12 -66 -23 -65 -25 2 -1 48 6
103 17 54 10 140 22 190 26 l91 7 33 -79 c48 -116 104 -268 130 -356 l22 -77
-20 -33 c-33 -54 -150 -160 -245 -223 -48 -32 -85 -60 -83 -62 6 -6 139 61
188 95 44 31 118 104 156 155 l20 28 12 -37 c12 -35 11 -37 -26 -76 -22 -21
-84 -74 -139 -115 -128 -97 -131 -101 -65 -68 75 38 135 80 197 138 l52 49 6
-28 c15 -75 57 -225 108 -384 86 -273 128 -423 120 -431 -14 -12 -145 -52
-248 -75 l-100 -22 74 -1 c77 -1 159 16 237 49 26 11 49 18 51 16 7 -7 51
-160 48 -164 -2 -2 -16 3 -32 11 -44 23 -174 47 -255 47 -271 -1 -537 -178
-655 -437 l-26 -57 -66 70 c-68 72 -160 200 -276 389 -50 80 -92 170 -155 328
-47 119 -85 217 -83 217 1 0 38 -10 80 -21 83 -23 246 -32 251 -14 1 6 -35 13
-85 16 -49 4 -126 14 -172 23 -46 9 -85 16 -86 16 -3 0 -25 59 -25 67 0 2 14
-4 31 -12 40 -21 152 -45 209 -44 39 0 30 4 -65 29 -198 51 -184 41 -233 166
-24 60 -56 160 -73 222 l-29 114 20 27 c36 51 212 183 400 299 59 36 25 25
-78 -27 -152 -77 -319 -206 -375 -290 l-16 -24 -130 57 c-193 86 -519 268
-773 432 l-98 63 57 107 c31 59 52 104 45 100 -17 -11 -103 -144 -111 -172
l-7 -26 -64 49 c-84 64 -165 161 -221 264 -24 45 -56 95 -71 111 -35 39 -59
141 -66 282 -3 77 -8 104 -14 92 -17 -30 -13 -225 5 -290 l16 -58 -27 23
c-108 93 -207 200 -228 244 -19 39 -24 45 -24 25 0 -50 46 -124 123 -197 41
-40 73 -73 71 -73 -2 0 -51 22 -108 49 -132 62 -146 66 -146 48 0 -15 142 -85
265 -131 84 -31 138 -82 208 -196 75 -124 174 -215 348 -323 43 -26 87 -56
100 -66 l23 -18 -69 -16 c-39 -9 -162 -28 -275 -42 -113 -14 -209 -28 -215
-30 -5 -3 62 -3 150 0 180 6 328 26 392 55 l44 19 77 -46 c114 -68 111 -63 57
-115 -46 -45 -91 -73 -312 -198 -62 -35 -111 -65 -109 -67 6 -7 174 65 246
105 36 19 91 53 122 74 31 21 59 38 62 38 9 0 7 -52 -4 -91 -5 -19 -32 -67
-59 -107 -27 -39 -53 -77 -57 -83 -13 -22 53 30 81 62 14 18 29 29 32 25 4 -4
-4 -41 -16 -84 -36 -120 -36 -121 -9 -84 l25 32 7 -31 c30 -154 -47 -239 -361
-400 -63 -32 -111 -59 -106 -59 20 0 150 48 203 75 30 15 87 49 126 75 l71 47
-4 -186 c-7 -405 -7 -401 -35 -463 -40 -86 -98 -141 -278 -261 -91 -60 -154
-106 -140 -102 55 16 219 108 289 161 l74 57 18 -24 c30 -39 32 -73 9 -186
-20 -107 -79 -252 -131 -325 -36 -50 -14 -42 36 14 44 50 47 51 41 23 -10 -43
-36 -75 -89 -112 -62 -42 -114 -60 -416 -150 l-255 -75 -135 11 c-281 24 -305
24 -425 6 -126 -19 -242 -17 -291 5 -22 10 -91 14 -250 15 -121 1 -296 8 -390
14 -157 11 -403 50 -450 70 -11 5 -108 46 -215 92 -218 92 -373 166 -440 212
-25 17 -79 63 -120 102 -110 104 -206 164 -325 205 -48 16 -50 18 -58 65 -16
97 16 284 58 333 1 1 18 -5 38 -13 55 -23 56 -19 6 29 -41 39 -47 50 -52 99
-13 127 46 354 121 465 7 10 25 -4 73 -54 59 -62 169 -144 192 -144 5 0 -12
19 -39 42 -63 54 -165 160 -214 223 -34 44 -40 60 -49 135 -15 116 -28 320
-20 320 3 0 53 -35 110 -78 238 -179 426 -283 629 -349 8 -3 -65 38 -163 91
-198 107 -278 156 -414 257 -50 37 -109 79 -131 93 l-40 25 -7 203 c-8 218 6
417 46 663 28 173 21 165 87 103 52 -50 188 -136 198 -126 2 3 -15 18 -39 35
-53 39 -187 162 -187 173 0 5 36 32 80 61 44 29 78 54 76 57 -2 2 -32 -11 -66
-28 l-63 -32 24 39 c32 53 115 169 163 228 l41 49 -33 -23 c-29 -20 -103 -101
-170 -187 l-23 -29 19 35 c65 117 133 250 129 250 -3 0 -36 -45 -73 -100 -37
-55 -69 -98 -70 -97 -4 4 43 213 56 251 15 44 4 43 -19 -1 -29 -58 -58 -156
-76 -258 -16 -88 -33 -155 -40 -155 -2 0 -104 70 -226 156 -122 86 -267 186
-322 221 l-99 65 6 41 c3 23 33 96 66 162 55 111 57 117 25 80 -43 -50 -89
-136 -105 -195 -7 -25 -14 -51 -16 -58 -2 -7 -8 -11 -13 -7 -21 12 53 179 152
345 28 47 93 150 145 230 103 158 100 168 -8 25 -135 -179 -279 -426 -310
-533 -7 -23 -16 -42 -20 -42 -4 0 -49 23 -101 51 -52 28 -150 80 -219 114
-152 77 -397 259 -392 291 2 10 24 69 48 129 60 145 59 145 34 110 -32 -44
-89 -164 -96 -202 -6 -33 -17 -42 -29 -24 -13 21 89 226 202 406 43 69 43 69
8 30 -82 -93 -235 -348 -235 -392 0 -7 -4 -13 -8 -13 -31 0 -545 477 -705 654
l-71 78 29 56 c16 31 59 97 95 147 85 117 91 127 46 85 -47 -44 -119 -139
-159 -209 l-31 -54 -38 44 c-131 150 -292 387 -382 562 -50 98 -126 271 -126
287 0 4 25 8 56 8 61 0 154 31 194 63 l25 20 -40 -17 c-130 -53 -202 -65 -239
-40 -14 9 -27 12 -30 8 -10 -16 56 -188 125 -326 165 -331 451 -694 791 -1003
84 -76 188 -172 233 -213 99 -92 238 -210 325 -275 36 -26 76 -59 89 -73 40
-41 145 -104 359 -216 235 -123 334 -182 527 -314 77 -53 203 -138 280 -190
77 -51 143 -97 148 -101 4 -4 -1 -45 -12 -92 -36 -153 -51 -291 -62 -564 -14
-357 9 -768 52 -941 10 -38 8 -49 -19 -106 -76 -163 -111 -355 -82 -460 9 -32
7 -44 -15 -86 -44 -84 -60 -273 -30 -356 l14 -39 -69 -64 c-38 -35 -81 -82
-95 -106 -23 -35 -58 -60 -209 -150 -199 -119 -387 -247 -480 -328 -34 -28
-77 -59 -96 -67 -57 -24 -163 -96 -360 -245 -249 -188 -371 -289 -522 -432
-70 -66 -166 -153 -215 -194 -310 -259 -453 -411 -509 -540 -19 -44 -34 -87
-34 -98 0 -10 -11 -52 -24 -93 -52 -163 -91 -416 -121 -780 -8 -107 -22 -226
-29 -265 -8 -38 -22 -115 -30 -170 -9 -55 -34 -166 -56 -247 -60 -221 -81
-331 -87 -463 -6 -135 9 -217 53 -293 23 -39 25 -50 19 -110 -20 -202 -59
-301 -144 -368 -78 -63 -126 -85 -281 -134 -250 -78 -342 -111 -424 -151 -91
-44 -207 -126 -231 -162 -16 -26 -29 -95 -39 -210 l-5 -68 40 -44 c23 -25 64
-60 92 -80 29 -20 90 -68 137 -106 95 -79 236 -154 306 -165 26 -4 59 -13 73
-20 36 -19 292 -18 448 1 67 8 193 29 280 45 87 17 210 39 273 50 194 34 509
129 635 192 33 17 81 36 107 44 52 16 99 58 127 113 38 73 86 440 97 731 6
151 5 170 -14 223 l-21 58 31 46 c114 168 260 609 303 913 9 63 29 167 45 230
15 63 40 192 54 285 15 94 29 184 32 200 5 28 26 40 372 212 454 226 579 283
1267 575 154 66 285 122 292 124 13 6 -62 -232 -151 -479 -71 -198 -108 -332
-145 -517 -82 -408 -94 -588 -47 -742 37 -124 83 -223 288 -610 140 -265 202
-396 275 -578 52 -129 116 -282 142 -340 27 -58 61 -135 76 -172 22 -56 35
-72 73 -98 89 -58 99 -71 121 -164 11 -47 36 -128 56 -179 l35 -92 -29 -25
c-16 -14 -73 -64 -127 -111 -55 -47 -161 -132 -236 -187 -75 -56 -160 -122
-188 -147 -28 -25 -55 -45 -59 -45 -13 0 -50 -80 -67 -143 -20 -74 -18 -220 4
-284 16 -45 82 -146 90 -138 2 2 -5 20 -16 42 -21 42 -39 96 -25 75 12 -17 75
-62 86 -62 5 0 -16 27 -47 61 -31 33 -56 67 -56 75 0 8 -4 14 -10 14 -16 0
-12 143 6 221 8 38 19 69 22 69 4 0 17 -18 30 -38 13 -21 32 -43 42 -50 12 -7
8 6 -16 46 -19 30 -34 63 -34 72 0 9 94 85 218 177 120 89 264 205 320 258
l101 96 30 -53 c17 -29 31 -50 31 -46 0 4 -20 65 -46 136 -54 155 -104 332
-94 332 4 0 32 -11 61 -23 171 -75 448 -98 609 -53 30 9 91 22 135 31 143 26
273 81 373 158 53 40 53 40 73 20 21 -20 67 -194 109 -408 l21 -110 -79 -75
c-65 -62 -168 -142 -268 -207 -16 -10 -14 -11 11 -2 63 22 192 107 265 176
l77 73 7 -51 c4 -27 17 -90 30 -139 13 -52 19 -90 13 -90 -5 0 -58 -35 -116
-79 -129 -96 -250 -174 -365 -237 -48 -25 -85 -48 -83 -51 7 -6 178 71 254
115 79 46 210 142 274 199 l42 38 -6 -50 c-4 -27 -18 -73 -32 -101 -46 -95
-92 -126 -445 -303 -179 -90 -343 -174 -365 -186 -22 -12 -89 -48 -148 -80
-60 -31 -107 -59 -104 -61 15 -15 934 445 1004 502 47 38 99 119 108 169 4 16
11 40 17 52 8 16 4 52 -16 150 -14 70 -35 184 -46 253 -20 120 -92 438 -109
484 -5 12 -16 28 -25 35 -13 11 -12 17 11 53 31 45 31 45 9 268 -18 176 -53
366 -85 466 -11 33 -36 123 -56 200 -71 276 -200 623 -290 777 l-43 72 50 54
c62 68 116 139 349 461 263 363 377 536 464 710 21 41 88 165 150 275 211 375
303 575 370 804 51 175 74 295 87 453 12 134 12 136 32 122 44 -31 139 -11
184 39 22 23 29 25 77 20 85 -9 165 30 200 97 10 20 24 29 53 34 73 11 122 70
122 148 0 39 4 45 33 58 39 18 80 92 72 131 -4 18 0 31 14 43 28 25 44 81 37
125 -6 37 -5 38 37 51 98 29 258 126 301 183 34 44 47 81 54 155 l7 63 100
-153 c69 -106 127 -180 188 -243 l88 -90 -17 -95 c-21 -117 -15 -329 11 -400
9 -25 17 -50 19 -57 4 -22 38 -52 80 -73 89 -43 217 -19 268 50 l22 30 57 -56
c124 -117 363 -180 435 -114 20 20 21 20 60 1 92 -44 178 -35 232 24 30 32 33
42 30 81 -2 24 -1 44 2 44 3 0 23 -9 45 -20 44 -22 67 -25 95 -10 41 22 52
136 21 225 l-18 50 41 15 c109 41 77 219 -85 478 -75 121 -140 189 -227 240
l-64 37 -34 135 c-43 168 -93 335 -194 650 -44 135 -89 292 -100 350 -24 118
-99 350 -159 488 -22 51 -37 92 -34 92 3 0 -1 8 -9 18 -9 9 -25 36 -37 59 -11
22 -31 49 -43 60 -13 10 -70 86 -128 168 -107 154 -250 336 -360 460 l-62 70
6 75 c4 41 23 217 42 390 44 392 44 544 2 625 -14 28 -38 61 -53 75 -24 23
-35 25 -113 25 -97 -1 -231 -34 -268 -67 -44 -39 -66 -190 -68 -459 l-1 -186
-136 131 c-75 72 -184 172 -242 221 l-106 90 7 105 c4 58 7 155 7 215 0 143
-10 159 -150 255 -97 66 -105 73 -105 104 0 38 -17 63 -45 68 -17 3 -21 14
-26 83 -10 126 -23 141 -132 161 -30 5 -37 10 -32 23 19 45 54 208 65 294 12
94 11 305 -3 582 -9 177 -68 365 -183 593 l-53 104 37 -28 c114 -85 233 -187
357 -304 77 -73 201 -185 275 -250 74 -65 149 -132 165 -150 42 -46 294 -273
457 -412 165 -142 285 -236 441 -347 64 -46 129 -97 143 -114 67 -79 93 -188
94 -389 0 -153 -26 -557 -40 -613 -13 -52 -34 -215 -65 -497 -13 -125 -34
-289 -45 -365 -29 -188 -35 -253 -23 -253 24 0 75 272 103 549 11 108 25 221
30 251 36 210 80 712 80 916 0 215 -11 268 -80 392 -12 22 -83 82 -202 169
-271 201 -480 376 -683 574 -60 59 -193 179 -295 266 -102 87 -254 222 -339
300 -142 132 -295 258 -398 329 -27 19 -68 70 -124 153 -124 187 -318 381
-504 505 -178 119 -349 186 -545 215 -41 6 -121 18 -176 26 -92 14 -266 18
-354 8z m315 -43 c38 -6 116 -22 172 -36 57 -14 127 -27 156 -29 28 -2 92 -18
141 -34 486 -165 942 -739 1077 -1353 21 -94 23 -129 24 -408 0 -217 -4 -327
-14 -380 -26 -142 -61 -243 -129 -369 -121 -225 -262 -347 -577 -502 -242
-119 -581 -218 -1065 -313 -116 -22 -380 -44 -380 -31 0 4 19 34 42 67 23 34
63 105 88 157 46 93 120 272 120 290 0 4 21 16 48 26 230 87 399 231 496 426
64 126 82 210 72 341 -9 135 -30 180 -130 270 -89 80 -144 111 -272 153 -100
33 -426 113 -659 161 -345 71 -659 216 -935 432 -35 28 -67 48 -70 45 -10 -10
137 -139 225 -198 249 -165 472 -244 1020 -365 262 -58 391 -91 485 -126 66
-25 155 -73 148 -79 -2 -3 -52 11 -111 31 -60 19 -154 41 -210 49 -710 102
-978 157 -1182 240 -44 18 -97 38 -118 45 -106 34 -271 180 -323 286 -33 67
-29 79 43 114 43 22 51 29 51 55 1 31 34 134 70 217 96 219 393 492 708 648
120 60 162 75 286 104 121 28 256 51 413 69 66 8 224 6 290 -3z m-1360 -352
c-63 -52 -177 -158 -197 -183 -17 -21 -20 -22 -46 -10 -37 19 -112 35 -112 24
0 -4 27 -18 59 -30 l59 -21 -45 -62 c-25 -33 -52 -74 -61 -91 l-15 -30 -12 50
c-13 55 -48 129 -67 141 -6 4 -39 6 -74 5 -34 -1 -64 1 -67 6 -3 4 0 34 5 65
l10 58 29 -15 c39 -21 79 -36 79 -30 0 3 -18 18 -39 33 l-39 28 192 28 c105
15 229 35 276 45 47 11 89 19 95 20 5 1 -8 -14 -30 -31z m-424 -290 c23 -49
29 -74 27 -114 l-3 -52 -70 -6 c-38 -4 -99 -10 -134 -13 -62 -6 -64 -5 -58 15
20 66 20 68 -12 32 -17 -19 -31 -38 -31 -42 0 -4 -9 -8 -21 -8 -33 0 -62 78
-57 152 8 110 54 113 107 6 l31 -61 0 39 c0 21 -9 53 -20 71 l-19 32 92 4 c51
1 102 4 115 5 19 2 28 -9 53 -60z m4 -261 c-14 -43 -25 -93 -25 -112 0 -24 -5
-35 -19 -40 -46 -14 -103 -68 -127 -118 l-24 -52 6 115 c2 63 7 148 10 188 l6
72 41 1 c23 0 67 6 97 13 30 6 56 11 57 11 1 -1 -9 -36 -22 -78z m-14 -441
c33 -35 89 -83 124 -106 64 -42 65 -43 48 -63 -18 -20 -18 -20 7 -4 45 31 45
18 0 -30 -25 -26 -30 -35 -13 -19 18 16 35 27 38 24 3 -3 -42 -47 -100 -97
-58 -51 -105 -95 -105 -98 0 -7 7 -2 104 82 111 96 150 125 166 125 10 -1 5
-9 -12 -23 -16 -13 -28 -26 -28 -31 0 -4 14 4 31 18 30 26 59 28 82 6 5 -4
-47 -57 -114 -116 -175 -154 -240 -214 -233 -214 7 0 164 133 283 239 111 100
106 76 -7 -30 -42 -41 -73 -71 -68 -66 6 4 17 7 25 7 8 0 55 37 105 82 50 45
80 70 67 55 -15 -17 -20 -27 -11 -27 9 0 8 -6 -5 -20 -10 -12 -25 -18 -32 -15
-8 2 -11 0 -8 -5 4 -6 1 -9 -5 -8 -7 2 -14 -5 -15 -15 -3 -16 -1 -16 23 2 33
23 68 61 57 61 -4 0 0 9 9 19 10 11 25 17 33 14 11 -4 -1 -21 -44 -66 -56 -59
-52 -57 52 19 l50 37 -55 -52 c-35 -34 -43 -45 -22 -31 17 12 32 19 32 15 0
-3 -15 -20 -32 -37 -18 -18 -25 -26 -15 -18 41 31 22 -1 -35 -60 -70 -70 -61
-65 103 63 113 89 113 89 158 82 45 -7 59 -12 50 -18 -26 -19 -269 -230 -269
-233 0 -9 52 31 140 108 99 85 160 132 165 126 2 -2 -20 -23 -50 -47 -29 -24
-62 -52 -72 -63 -18 -21 -18 -21 6 -7 13 8 32 19 42 25 11 6 37 27 59 47 44
42 66 50 30 12 -13 -14 -20 -25 -15 -25 4 0 0 -9 -9 -19 -10 -11 -18 -25 -20
-33 -2 -16 -103 -112 -298 -282 -82 -71 -148 -130 -148 -133 0 -7 47 32 230
192 166 145 248 224 298 289 17 22 25 26 35 17 8 -6 18 -7 22 -3 5 4 2 -4 -7
-18 -8 -14 -64 -70 -125 -125 -60 -55 -142 -131 -183 -168 l-75 -69 65 52
c110 88 240 202 306 270 35 35 64 60 64 55 0 -4 -8 -18 -17 -29 -15 -18 -14
-17 8 2 l26 22 102 -15 c56 -8 116 -21 134 -28 18 -8 39 -12 47 -10 8 2 -7
-17 -35 -43 -55 -51 -44 -50 21 3 23 18 49 33 59 33 16 0 14 -5 -11 -32 -16
-18 -20 -25 -8 -15 32 26 40 20 13 -10 l-24 -28 27 24 c15 13 26 28 25 33 -1
6 9 12 22 14 23 4 23 3 9 -13 -8 -10 -21 -29 -28 -43 -13 -24 -12 -24 6 -11
10 8 32 26 48 40 l29 26 -18 -28 c-10 -15 -54 -57 -99 -94 -94 -77 -354 -299
-376 -321 -39 -38 27 10 146 108 167 137 266 207 257 183 -5 -15 -2 -14 19 5
13 12 29 22 36 22 6 0 39 26 74 57 35 31 50 42 33 23 -38 -45 -58 -80 -45 -80
6 0 -20 -30 -57 -67 -71 -69 -62 -64 47 28 92 77 95 79 126 85 l27 5 -36 -41
c-50 -54 -47 -63 5 -15 23 22 34 30 24 17 -25 -29 -12 -41 17 -16 13 10 -17
-19 -67 -66 -122 -114 -226 -217 -201 -199 46 34 187 159 284 253 58 56 99 93
92 84 -11 -15 -11 -18 2 -18 8 0 20 7 27 15 13 16 30 11 30 -8 0 -9 -2 -9 -8
0 -6 9 -23 -3 -58 -40 -107 -113 -124 -138 -36 -52 50 49 92 86 92 81 0 -5 8
-2 18 6 15 15 27 13 127 -18 99 -30 114 -38 150 -77 50 -55 64 -96 71 -212 10
-158 -42 -316 -151 -454 -117 -148 -311 -268 -499 -307 -111 -23 -316 -42
-316 -30 0 4 5 17 11 29 l12 22 -25 -22 c-13 -13 -30 -23 -38 -23 -9 0 -8 6 6
23 17 20 16 20 -9 -2 -32 -29 -49 -20 -21 12 42 48 44 59 2 15 -24 -27 -50
-48 -58 -48 -8 0 3 18 26 43 52 54 138 158 148 177 5 8 -18 -14 -50 -50 -32
-36 -80 -87 -105 -114 l-46 -49 -99 11 c-55 6 -105 12 -111 13 -28 5 -8 32 90
124 124 118 109 114 -31 -9 -56 -49 -101 -95 -98 -101 3 -8 -4 -10 -20 -7 -23
4 -23 5 21 57 25 29 94 95 153 148 118 104 174 162 107 110 -22 -17 -70 -58
-107 -92 -69 -63 -99 -81 -57 -33 24 27 24 27 -8 -2 -18 -16 -31 -32 -30 -36
3 -10 -134 -152 -140 -146 -3 2 27 35 66 72 39 37 69 69 66 72 -2 3 -13 -1
-22 -9 -10 -7 -4 2 12 20 36 40 22 34 -65 -32 l-65 -49 85 82 c81 78 69 79
-30 2 l-45 -35 36 39 c20 21 35 44 32 50 -2 6 27 36 65 67 61 51 129 117 92
91 -40 -28 -182 -145 -240 -199 -98 -89 -120 -105 -70 -51 l45 50 -44 -35
c-60 -47 -120 -89 -128 -89 -4 0 9 17 28 37 19 22 23 29 9 17 -14 -11 -33 -26
-42 -33 -18 -13 -18 -12 -3 49 2 8 4 18 4 22 1 6 71 75 106 103 11 9 13 13 5
9 -8 -4 -34 -22 -57 -41 -43 -34 -59 -42 -47 -20 5 8 2 8 -9 -2 -9 -7 -17 -10
-17 -5 0 5 26 33 58 62 49 46 51 49 12 20 -24 -18 -46 -31 -48 -29 -2 2 -30
-15 -61 -38 -50 -38 -52 -39 -16 -7 22 20 94 78 159 129 153 118 171 134 117
101 -82 -49 -225 -156 -304 -227 -42 -39 -80 -67 -84 -63 -4 4 10 23 32 42 44
38 20 36 -32 -3 -31 -23 -46 -20 -22 4 13 13 -7 13 -28 0 -7 -5 -13 -4 -13 1
0 6 -12 15 -27 20 -16 5 -60 37 -99 70 -69 59 -72 62 -103 156 -17 52 -33 123
-36 158 l-4 63 82 85 c86 88 82 89 -17 2 -33 -29 -63 -52 -67 -52 -3 0 28 34
70 76 64 65 68 70 24 34 -29 -23 -53 -39 -53 -35 0 4 -7 2 -15 -5 -8 -7 -13
-16 -10 -20 3 -4 -3 -14 -13 -21 -15 -13 -16 -12 -3 4 11 14 11 17 0 17 -8 0
6 18 31 39 25 21 48 37 51 35 4 -2 14 4 22 14 15 16 15 18 -2 19 -10 1 -38
-18 -62 -43 -24 -24 -48 -44 -53 -44 -6 0 12 23 39 50 27 28 43 50 36 50 -11
0 -11 3 0 17 12 14 10 14 -13 -1 -32 -21 -37 -31 -11 -21 11 4 7 -5 -11 -24
-17 -17 -34 -31 -40 -31 -5 0 1 11 14 25 13 14 20 25 15 25 -5 0 4 14 21 32
28 32 11 23 -33 -16 -29 -24 -29 -25 -42 144 -15 181 -14 296 3 410 8 52 19
137 25 187 6 51 17 104 23 118 11 25 12 24 40 -35 17 -34 56 -90 89 -124z
m234 -185 c-3 -6 -11 -11 -17 -11 -6 0 -6 6 2 15 14 17 26 13 15 -4z m274
-141 c-30 -27 -58 -49 -64 -49 -5 0 14 22 43 49 29 28 58 50 65 50 6 0 -14
-22 -44 -50z m2893 -861 c46 -11 47 -12 66 -73 20 -63 18 -74 -20 -121 -20
-25 -78 -118 -75 -121 2 -2 26 17 54 41 28 25 58 45 66 45 38 0 47 -12 47 -59
0 -26 6 -70 14 -99 l13 -52 -46 -43 c-225 -209 -649 -468 -941 -575 -196 -72
-612 -202 -705 -221 -423 -85 -695 -95 -974 -35 -25 5 -32 4 -27 -4 10 -16 7
-16 -108 14 -122 32 -276 91 -370 142 -70 37 -70 37 -87 100 -13 44 -14 62 -6
59 124 -54 165 -68 223 -77 84 -12 124 -13 124 -2 0 4 -26 14 -57 20 -84 18
-219 72 -283 113 l-55 36 5 89 5 89 35 19 36 19 67 -47 c38 -25 72 -46 78 -46
5 0 9 -7 9 -16 0 -18 69 -50 190 -88 328 -104 666 -96 1202 28 86 20 187 45
224 56 38 10 70 15 72 10 3 -9 144 36 277 89 303 121 513 248 651 394 61 63
166 223 205 310 8 17 18 26 28 23 9 -3 37 -10 63 -17z m-3220 -262 c77 -46
212 -99 313 -123 79 -19 461 -55 602 -57 62 -1 113 -4 113 -6 0 -9 -104 -198
-133 -241 -16 -25 -42 -58 -57 -75 -16 -16 -45 -56 -65 -89 l-37 -58 -42 6
c-67 11 -202 49 -188 54 8 2 -21 19 -63 37 -211 92 -350 224 -454 433 -35 69
-73 162 -67 162 3 0 37 -19 78 -43z m163 13 c-20 -22 -8 -28 15 -7 8 6 4 -1
-10 -16 -14 -16 -26 -23 -28 -18 -2 6 -8 9 -13 5 -19 -12 -8 8 19 31 33 30 41
32 17 5z m175 -74 c0 -2 -8 -10 -17 -17 -16 -13 -17 -12 -4 4 13 16 21 21 21
13z m3144 -65 c95 -64 133 -108 141 -163 3 -24 2 -116 -2 -205 l-8 -163 -170
136 c-93 74 -175 139 -183 143 -9 5 10 31 69 90 l82 82 -6 65 c-2 35 -3 64 0
64 2 0 37 -22 77 -49z m-2289 -162 c-62 -152 -77 -181 -148 -296 -33 -53 -58
-83 -69 -83 -10 0 -18 2 -18 4 0 3 24 40 53 83 29 44 92 159 141 256 49 98 90
176 92 174 2 -2 -21 -64 -51 -138z m-102 -91 c-63 -123 -124 -238 -135 -256
l-21 -34 -81 7 c-44 4 -83 9 -85 11 -2 2 19 33 45 69 109 148 146 205 196 301
l53 102 50 10 c103 20 104 35 -22 -210z m3472 -93 c75 -79 82 -201 35 -603
-17 -141 -34 -313 -37 -381 l-6 -124 -40 42 c-38 41 -39 45 -34 94 16 134 29
465 23 577 -11 220 -40 356 -88 407 l-21 23 68 0 c64 0 69 -2 100 -35z m-167
-7 c30 -32 39 -63 56 -180 20 -140 23 -268 12 -563 l-9 -250 -154 160 -155
160 7 175 c6 186 22 392 34 438 5 20 21 34 61 55 67 34 119 35 148 5z m-357
-775 c89 -92 279 -307 279 -316 0 -3 -15 -8 -33 -11 -53 -10 -214 -95 -306
-161 -95 -69 -215 -183 -260 -249 l-32 -46 -107 89 c-135 112 -332 302 -332
320 0 20 133 148 228 220 186 141 364 232 468 240 6 1 49 -38 95 -86z m189
-23 c0 -5 -7 -10 -15 -10 -9 0 -29 -7 -45 -15 -17 -9 -30 -11 -30 -6 0 5 17
16 38 24 45 19 52 20 52 7z m-845 -1523 l51 -28 -8 -87 c-16 -186 -38 -644
-37 -772 l1 -135 18 175 c21 200 50 624 50 729 0 39 3 71 6 71 3 0 43 -20 88
-45 45 -24 145 -70 221 -100 111 -45 144 -54 158 -46 15 10 17 7 17 -28 0 -62
43 -198 144 -451 51 -129 99 -255 107 -280 7 -25 42 -101 76 -169 l64 -125
-17 -80 c-19 -95 -31 -120 -76 -162 -96 -91 -236 -155 -475 -215 -177 -45
-307 -63 -381 -54 -45 6 -52 9 -47 23 28 67 56 257 54 364 -1 41 -8 12 -35
-129 -18 -101 -40 -199 -48 -218 -22 -51 -59 -48 -121 8 l-47 42 13 82 c11 75
11 86 -6 123 -10 22 -24 45 -31 50 -9 9 -4 22 22 61 61 92 66 121 68 449 l2
295 35 48 c31 45 34 53 32 120 -4 219 -3 318 3 368 4 34 2 64 -4 75 -9 15 -6
24 16 47 14 15 29 26 32 25 3 -2 28 -16 55 -31z m2271 -1351 c148 -47 257
-140 353 -300 89 -146 141 -280 141 -359 0 -35 -40 -77 -74 -77 -18 0 -32 12
-56 50 -31 48 -73 90 -91 90 -5 0 11 -27 36 -61 25 -34 45 -67 45 -75 0 -8 4
-14 9 -14 17 0 54 -105 59 -167 4 -48 1 -68 -12 -88 -18 -28 -36 -30 -100 -14
-38 9 -46 16 -68 63 -43 86 -168 244 -168 211 0 -2 25 -40 55 -82 107 -150
137 -243 95 -295 -28 -37 -88 -52 -149 -39 -84 18 -101 28 -101 58 0 34 -35
113 -50 113 -14 0 -13 -11 5 -53 21 -51 19 -94 -4 -107 -27 -14 -116 -12 -177
4 -146 39 -247 122 -346 286 -38 61 -35 32 4 -53 l32 -69 -41 -39 c-49 -45
-96 -57 -172 -41 -83 18 -118 62 -141 180 -17 85 -7 304 18 403 56 218 280
436 508 494 94 23 288 14 390 -19z m-6266 -304 c35 -20 96 -66 135 -102 101
-96 174 -153 249 -195 79 -44 313 -147 411 -180 45 -16 61 -25 45 -25 -60 -3
205 -78 370 -105 143 -23 604 -41 715 -28 81 10 93 9 127 -8 72 -37 126 -42
260 -24 67 8 137 17 153 19 17 2 110 -2 209 -10 206 -16 231 -14 459 47 323
86 437 131 513 201 47 43 64 84 64 158 0 24 7 65 16 90 9 25 18 51 20 59 3 10
15 4 42 -22 45 -44 92 -63 119 -48 13 6 33 6 59 1 47 -11 151 -12 216 -1 47 8
48 8 41 -18 -3 -14 -17 -39 -30 -54 -12 -16 -23 -39 -23 -52 0 -13 -10 -30
-26 -40 -14 -9 -32 -31 -39 -49 -11 -25 -22 -35 -47 -40 -20 -4 -49 -24 -79
-55 -37 -39 -50 -46 -64 -38 -27 15 -113 2 -145 -21 l-29 -22 -5 28 c-3 15
-10 53 -16 84 -10 52 -24 77 -36 66 -2 -3 3 -52 12 -109 18 -120 21 -416 5
-523 -6 -43 -17 -76 -28 -87 -30 -29 -142 -81 -263 -121 -94 -31 -106 -37 -65
-33 111 13 267 68 318 113 15 14 17 13 17 -4 0 -48 -14 -66 -71 -94 -146 -74
-291 -119 -484 -150 -97 -16 -103 -18 -55 -19 136 -2 361 51 508 119 l83 39
-7 -37 c-19 -106 -96 -305 -191 -496 -108 -218 -176 -336 -192 -336 -9 0 -49
-14 -90 -30 -41 -17 -158 -51 -260 -75 -239 -58 -263 -65 -191 -59 175 17 366
62 478 114 34 16 62 27 62 24 0 -3 -6 -18 -14 -33 -28 -53 -183 -111 -419
-157 -48 -9 -86 -19 -83 -21 2 -2 50 1 106 7 109 12 246 48 311 80 21 11 39
17 39 14 0 -17 -132 -254 -218 -389 -121 -192 -330 -485 -346 -485 -6 0 -55
-18 -108 -39 -168 -69 -360 -111 -507 -111 -35 0 -62 -2 -59 -5 12 -13 259 -5
333 10 92 19 233 68 293 100 l42 24 -37 -54 c-36 -52 -41 -55 -113 -74 -41
-12 -149 -34 -240 -50 -91 -16 -148 -30 -127 -30 63 -2 227 19 316 40 46 10
85 18 87 16 6 -5 -141 -205 -209 -284 -57 -68 -62 -71 -79 -56 -25 23 -36 7
-17 -25 78 -131 106 -184 153 -292 29 -69 75 -187 101 -263 57 -164 67 -140
-114 -263 -69 -46 -121 -84 -117 -84 23 0 203 98 241 132 24 21 45 38 48 38 3
0 7 -9 10 -20 4 -15 -10 -33 -53 -73 -100 -93 -276 -199 -472 -283 -49 -20
-87 -39 -85 -40 2 -2 37 6 78 17 150 42 381 168 496 273 28 25 54 43 56 39 2
-5 12 -39 22 -78 9 -38 30 -114 46 -168 42 -144 67 -284 85 -490 20 -222 19
-228 -70 -291 -116 -82 -255 -142 -396 -171 -47 -9 -88 -22 -91 -27 -20 -32
-316 -34 -464 -3 -89 19 -227 69 -249 91 -8 8 -18 14 -22 14 -4 0 -21 10 -38
23 -17 12 -44 29 -60 37 -16 8 -35 24 -42 35 -16 25 -104 281 -149 435 -35
117 -43 122 -25 16 5 -33 8 -61 6 -63 -1 -2 -20 41 -41 95 -21 53 -55 135 -77
181 -21 46 -37 86 -35 88 2 2 20 -3 39 -11 19 -8 59 -18 89 -21 l54 -6 -65 26
c-134 52 -139 56 -160 103 -11 24 -20 46 -20 48 0 3 32 -12 70 -31 75 -38 236
-95 266 -95 11 0 -46 28 -126 63 -248 107 -216 75 -363 357 -166 318 -218 427
-253 531 -27 79 -29 93 -28 239 1 104 8 200 23 290 27 175 62 340 71 340 4 0
15 -9 26 -21 28 -31 140 -94 238 -133 89 -36 235 -80 242 -74 2 3 -60 31 -139
62 -157 65 -248 111 -319 163 -42 30 -47 38 -42 61 4 15 9 30 11 34 2 4 31
-14 64 -41 69 -55 240 -147 347 -185 40 -14 76 -26 80 -26 4 1 -69 40 -163 88
-180 92 -242 131 -289 181 l-29 31 81 247 c44 137 99 295 121 353 22 58 71
198 108 313 37 114 70 207 73 206 3 0 22 -35 43 -77 65 -134 154 -227 282
-296 44 -24 47 -25 21 -4 -165 131 -211 183 -286 329 -46 90 -48 98 -38 132 6
20 14 37 17 37 4 0 14 -21 23 -47 60 -168 255 -351 503 -474 128 -63 175 -79
85 -27 -329 187 -464 307 -557 496 l-46 94 61 191 c34 106 71 229 84 273 l22
82 48 -43 c85 -76 248 -149 448 -200 151 -38 141 -29 -40 33 -179 63 -250 93
-321 138 -67 42 -129 101 -123 117 3 10 15 5 41 -19 20 -19 71 -51 112 -73 78
-40 247 -104 263 -99 5 2 -39 23 -99 48 -115 48 -244 123 -281 163 l-23 25 21
107 c31 162 10 152 -30 -15 -12 -47 -37 -139 -56 -205 -35 -119 -235 -746
-241 -754 -1 -2 -32 11 -68 29 -67 34 -164 109 -264 204 -37 35 -48 42 -34 21
30 -43 170 -176 226 -214 26 -18 68 -39 92 -47 29 -11 42 -20 39 -29 -9 -22
-71 9 -232 117 -55 37 -70 43 -52 24 42 -46 141 -117 208 -149 42 -20 61 -34
58 -43 -3 -8 -17 -51 -31 -97 l-25 -83 -217 -87 c-120 -49 -267 -109 -328
-136 l-110 -48 -66 27 c-102 43 -203 111 -374 254 l-60 51 45 -50 c117 -129
268 -240 370 -271 l61 -18 -33 -17 c-32 -16 -34 -16 -83 8 -67 35 -179 111
-256 175 -49 41 -59 46 -42 23 52 -74 220 -206 280 -221 13 -4 23 -9 23 -13 0
-8 -178 -91 -355 -166 -60 -26 -264 -125 -452 -221 -188 -96 -345 -174 -348
-174 -3 0 -2 8 3 18 5 9 7 23 5 30 -3 7 0 19 6 26 8 10 7 17 -4 26 -9 7 -18
10 -21 7 -8 -8 -111 44 -194 97 -93 60 -98 62 -70 32 36 -40 164 -123 210
-137 37 -11 55 -29 29 -29 -26 0 -151 75 -234 141 -172 137 -180 141 -84 46
98 -97 220 -186 285 -207 l36 -12 -6 -52 c-21 -162 -79 -510 -95 -561 l-18
-60 -59 -18 c-94 -29 -191 -47 -288 -54 -101 -7 -92 -21 14 -22 79 0 195 20
273 47 31 11 57 17 57 12 0 -11 -114 -45 -200 -60 -36 -6 -128 -17 -205 -25
l-140 -14 170 3 c143 3 185 7 265 29 52 13 97 23 99 21 7 -7 -28 -196 -59
-317 -56 -221 -120 -396 -213 -587 -45 -90 -140 -183 -245 -238 -45 -24 -82
-45 -82 -47 0 -7 105 27 145 47 22 11 59 35 82 54 23 19 43 34 46 34 2 0 10
-25 17 -56 11 -46 11 -91 1 -262 -10 -173 -25 -310 -30 -280 0 5 -21 -8 -46
-27 -25 -19 -91 -57 -146 -85 -105 -52 -111 -63 -18 -31 69 23 134 56 178 89
l34 25 -7 -79 c-13 -148 -9 -140 -95 -184 -80 -41 -72 -52 17 -21 61 21 63 16
23 -54 -35 -62 -49 -74 -109 -96 -26 -9 -88 -35 -138 -57 -209 -93 -503 -168
-972 -248 -267 -45 -575 -63 -556 -33 3 5 2 30 -2 55 -8 56 -24 40 -24 -25 0
-43 0 -43 -29 -38 -55 11 -187 67 -252 106 -78 47 -264 189 -330 252 l-49 46
0 67 0 67 57 -46 c31 -26 75 -55 97 -66 l41 -20 -35 28 c-140 113 -150 123
-150 154 0 34 13 64 42 96 19 20 22 21 43 7 33 -21 247 -114 265 -114 8 0 -50
32 -129 70 l-144 71 39 29 c113 82 314 159 587 224 110 26 154 45 245 102 28
19 52 32 52 30 0 -2 -7 -23 -15 -46 -25 -70 -11 -56 27 27 62 135 108 320 108
430 l0 45 53 -46 c129 -110 264 -164 437 -173 58 -3 102 -2 98 2 -4 4 -49 14
-100 21 -200 30 -340 97 -473 227 -76 75 -84 100 -85 263 0 130 16 233 70 439
42 163 65 276 75 370 4 33 9 64 12 68 2 4 26 -8 53 -28 58 -42 176 -98 244
-114 69 -17 67 -8 -4 18 -110 40 -290 145 -290 169 0 17 3 16 68 -26 65 -42
178 -87 312 -125 196 -56 188 -48 -39 38 -169 63 -265 108 -307 143 l-21 18
23 214 c51 475 73 601 145 847 44 149 49 158 151 280 60 72 146 154 447 423
l84 75 -7 -40 c-21 -121 -15 -288 12 -332 4 -6 7 66 7 161 1 223 3 228 156
362 141 124 214 182 449 360 208 158 274 204 289 204 6 0 45 25 86 55 l75 56
0 -68 c1 -37 7 -103 15 -145 13 -77 64 -243 71 -235 2 2 -7 53 -21 113 -37
163 -51 304 -34 339 26 54 34 38 35 -73 1 -122 23 -251 61 -355 28 -78 72
-171 78 -165 2 2 -7 34 -20 71 -57 157 -95 358 -95 508 0 55 3 69 23 86 28 26
139 100 292 195 66 41 133 82 148 93 22 14 28 15 26 4 -1 -8 0 -21 3 -29 3 -8
11 -42 18 -75 23 -113 127 -302 230 -415 33 -36 26 -22 -36 74 -96 150 -157
279 -179 378 -22 100 -8 124 16 27 36 -142 139 -310 316 -516 48 -56 89 -100
91 -98 2 2 -43 65 -100 141 -58 77 -124 167 -147 202 -94 139 -162 308 -147
367 4 14 46 66 95 115 84 85 91 90 122 84 33 -6 33 -6 14 10 -18 15 -17 15 20
0 22 -9 69 -32 105 -52z m4536 -133 c-4 -23 -13 -54 -22 -70 -12 -25 -21 -29
-57 -30 l-42 -1 38 -16 c35 -15 38 -20 32 -46 -12 -64 -68 -116 -104 -97 -11
6 -28 11 -38 11 -12 -1 -6 -8 19 -23 32 -19 36 -25 31 -52 -8 -45 -35 -87 -73
-112 -46 -32 -76 -30 -95 6 -8 16 -18 31 -22 33 -5 1 -24 28 -44 59 -40 61
-39 75 9 115 21 17 32 20 56 13 43 -12 44 -3 2 22 -40 23 -39 35 7 78 22 20
32 22 69 16 40 -6 42 -6 22 9 -11 8 -33 18 -47 21 -52 13 -14 37 109 71 161
43 158 43 150 -7z m-397 -351 c20 -17 48 -57 63 -87 l28 -56 -38 -32 c-50 -44
-112 -67 -157 -59 -28 6 -35 11 -35 31 0 13 -4 26 -9 29 -10 6 -21 -26 -21
-62 0 -18 -12 -28 -52 -47 -67 -31 -109 -32 -141 -2 -21 18 -26 34 -31 99 l-6
77 44 26 c29 17 57 25 87 24 62 -1 78 -9 99 -54 l18 -40 1 33 c1 18 -4 42 -10
53 -12 24 5 49 56 80 42 26 62 24 104 -13z" />
        <path
            d="M10040 14830 c-14 -4 -63 -20 -110 -35 -169 -54 -317 -144 -446 -270
-85 -84 -128 -142 -139 -187 -9 -37 7 -36 23 2 21 46 146 174 241 245 92 70
239 150 386 210 50 21 92 39 94 41 7 7 -22 3 -49 -6z" />
        <path d="M9910 14668 c-88 -33 -205 -116 -188 -133 2 -3 65 31 138 75 136 82
148 95 50 58z" />
        <path
            d="M12090 14040 c0 -6 18 -53 41 -105 47 -112 83 -245 98 -370 20 -161
11 -686 -15 -875 -12 -89 7 -30 26 81 55 320 69 664 36 853 -28 158 -86 313
-149 398 -21 28 -37 36 -37 18z" />
        <path
            d="M12080 13637 c0 -3 7 -40 16 -83 9 -43 22 -127 28 -188 l12 -111 8
61 c12 93 -24 300 -55 319 -5 4 -9 4 -9 2z" />
        <path
            d="M11440 13384 c-50 -22 -69 -46 -113 -148 -89 -205 -155 -452 -135
-506 13 -35 46 -68 93 -93 61 -33 249 -28 406 12 135 33 154 42 174 81 26 50
18 102 -36 237 -87 218 -131 302 -197 371 -58 60 -62 62 -109 62 -26 -1 -64
-8 -83 -16z m114 -10 c11 -4 14 -15 10 -37 -5 -31 -5 -31 8 -9 l14 23 20 -23
c59 -67 93 -123 159 -266 39 -87 75 -170 79 -185 6 -25 3 -28 -26 -34 l-33 -7
35 -6 c33 -5 35 -7 34 -43 -1 -25 -9 -47 -24 -62 -21 -22 -25 -23 -40 -10 -23
21 -33 19 -21 -3 9 -17 1 -21 -85 -41 -123 -28 -197 -35 -277 -27 -60 7 -64 9
-60 29 l4 22 -17 -22 -16 -23 -38 21 c-45 26 -70 65 -70 113 0 28 4 36 18 36
14 0 15 2 2 10 -12 8 -11 21 14 97 35 109 97 282 125 347 l22 49 24 -23 c29
-27 32 -20 9 16 -20 29 -13 38 36 52 42 12 73 14 94 6z" />
        <path
            d="M11470 13300 c-13 -9 -13 -10 0 -10 8 0 22 5 30 10 13 9 13 10 0 10
-8 0 -22 -5 -30 -10z" />
        <path
            d="M11590 13275 c0 -6 5 -16 12 -23 6 -6 42 -71 80 -144 78 -150 82
-137 6 18 -48 97 -97 171 -98 149z" />
        <path
            d="M11414 13229 c-32 -63 -85 -192 -81 -202 1 -5 20 30 41 79 21 49 44
104 52 122 18 41 10 42 -12 1z" />
        <path
            d="M11471 13227 c-11 -27 0 -89 19 -112 20 -24 66 -18 89 11 12 15 21
35 21 45 0 29 -42 67 -83 74 -33 5 -38 3 -46 -18z m83 -44 c8 -19 -12 -55 -27
-50 -13 4 -37 68 -31 79 7 11 52 -12 58 -29z" />
        <path
            d="M11298 12969 c-4 -7 -13 -31 -22 -51 -9 -21 -14 -38 -11 -38 9 0 46
81 42 93 -2 7 -6 6 -9 -4z" />
        <path
            d="M11633 12928 c-13 -6 -23 -15 -23 -20 0 -5 5 -6 10 -3 14 8 13 3 -7
-35 -14 -30 -14 -36 -2 -59 26 -47 104 -37 128 16 16 35 14 49 -11 77 -27 30
-64 39 -95 24z m59 -45 c24 -21 23 -38 -3 -57 -40 -27 -64 7 -39 55 13 23 18
24 42 2z" />
        <path d="M11760 12927 c0 -7 7 -22 15 -33 13 -17 14 -16 4 14 -11 33 -19 41
-19 19z" />
        <path
            d="M11317 12882 c-24 -27 -21 -69 8 -97 36 -37 95 -29 95 13 0 19 -31
85 -44 94 -19 13 -42 9 -59 -10z m52 -54 c5 -13 7 -25 5 -27 -7 -7 -34 21 -34
35 0 22 20 16 29 -8z" />
        <path d="M11771 12792 c-7 -13 -11 -26 -8 -28 8 -8 29 25 25 38 -3 8 -9 4 -17
-10z" />
        <path d="M11279 12772 c5 -10 18 -25 28 -33 12 -10 11 -5 -6 19 -24 35 -38 43
-22 14z" />
        <path d="M11520 12710 c-69 -10 -113 -18 -99 -19 47 -2 232 20 248 29 22 13 6
12 -149 -10z" />
        <path d="M8732 14418 c-27 -27 -6 -118 28 -118 29 0 35 84 8 118 -13 15 -21
15 -36 0z" />
        <path d="M9339 13503 c-13 -16 -12 -17 4 -4 16 13 21 21 13 21 -2 0 -10 -8
-17 -17z" />
        <path d="M9469 13453 c-13 -16 -12 -17 4 -4 16 13 21 21 13 21 -2 0 -10 -8
-17 -17z" />
        <path d="M9409 13423 c-13 -16 -12 -17 4 -4 16 13 21 21 13 21 -2 0 -10 -8
-17 -17z" />
        <path d="M9831 13344 c-27 -23 -58 -64 -48 -64 1 0 23 20 47 45 49 50 49 60 1
19z" />
        <path d="M9739 13323 l-24 -28 28 24 c15 14 27 26 27 28 0 8 -8 1 -31 -24z" />
        <path d="M10189 13293 c-13 -16 -12 -17 4 -4 9 7 17 15 17 17 0 8 -8 3 -21
-13z" />
        <path d="M10499 13193 c-13 -16 -12 -17 4 -4 9 7 17 15 17 17 0 8 -8 3 -21
-13z" />
        <path
            d="M10851 13166 c36 -13 76 -29 87 -35 12 -7 22 -8 22 -3 0 13 -87 49
-135 56 -33 5 -28 2 26 -18z" />
        <path d="M10499 13123 l-24 -28 28 24 c25 23 32 31 24 31 -2 0 -14 -12 -28
-27z" />
        <path
            d="M11000 13102 c0 -6 5 -33 10 -59 6 -26 14 -82 19 -123 l8 -75 2 70
c0 39 -5 96 -13 128 -13 54 -26 84 -26 59z" />
        <path
            d="M9069 12939 c-76 -61 -150 -131 -144 -137 2 -2 37 25 77 61 40 36 89
79 108 96 55 48 30 36 -41 -20z" />
        <path d="M8964 12948 l-19 -23 23 19 c12 11 22 21 22 23 0 8 -8 2 -26 -19z" />
        <path
            d="M10971 12645 c-36 -72 -62 -107 -155 -203 -122 -128 -89 -117 40 13
63 63 91 100 124 167 23 47 41 91 38 98 -2 7 -23 -27 -47 -75z" />
        <path d="M9729 12393 c-13 -16 -12 -17 4 -4 16 13 21 21 13 21 -2 0 -10 -8
-17 -17z" />
        <path
            d="M10630 12310 c-25 -16 -118 -41 -265 -70 -148 -29 -140 -41 11 -15
128 22 241 55 267 76 23 19 13 26 -13 9z" />
        <path d="M9439 12273 l-24 -28 28 24 c25 23 32 31 24 31 -2 0 -14 -12 -28 -27z" />
        <path
            d="M12480 12151 c-36 -36 -130 -113 -210 -170 -80 -57 -149 -108 -155
-114 -17 -18 85 42 190 112 129 86 295 246 248 240 -5 0 -37 -31 -73 -68z" />
        <path
            d="M12299 12144 c-24 -25 -84 -72 -134 -104 -49 -32 -135 -88 -190 -124
-55 -36 -97 -66 -94 -66 9 0 207 108 269 148 84 53 174 127 190 156 22 42 7
39 -41 -10z" />
        <path
            d="M11980 11796 c-58 -38 -355 -189 -497 -252 -72 -33 -130 -60 -129
-62 7 -6 191 65 296 114 139 66 323 169 359 200 33 30 16 30 -29 0z" />
        <path
            d="M11380 11668 c-214 -84 -474 -168 -582 -186 -100 -16 -101 -17 -49
-20 74 -4 173 19 381 90 148 51 417 167 385 166 -5 0 -66 -22 -135 -50z" />
        <path d="M11167 11450 c-95 -30 -125 -47 -67 -36 62 12 170 48 170 57 0 13 -5
12 -103 -21z" />
        <path
            d="M9866 11450 c19 -19 228 -60 329 -66 55 -3 127 -1 160 4 55 9 50 10
-70 11 -102 1 -162 8 -275 31 -166 34 -157 33 -144 20z" />
        <path d="M9520 11422 c0 -7 210 -53 235 -51 18 1 -38 20 -100 34 -98 22 -135
26 -135 17z" />
        <path
            d="M10780 11324 c-136 -21 -399 -28 -540 -15 -69 7 -133 14 -142 17 -10
3 -18 1 -18 -4 0 -5 47 -17 104 -26 151 -23 402 -22 548 4 186 32 225 52 48
24z" />
        <path
            d="M13065 11001 c-96 -45 -273 -169 -350 -244 -38 -38 -64 -66 -57 -62
7 4 12 -1 12 -13 0 -33 79 -128 146 -177 35 -26 64 -49 64 -52 0 -2 -8 -16
-17 -31 -9 -15 35 25 98 88 133 133 231 211 344 272 61 32 75 44 58 46 -12 2
-31 18 -42 35 -30 48 -156 167 -177 167 -11 0 -46 -13 -79 -29z m174 -88 l94
-87 -41 -17 c-101 -43 -325 -228 -386 -319 l-17 -25 -79 81 c-64 67 -120 145
-120 167 0 16 424 287 449 287 4 0 49 -39 100 -87z" />
        <path
            d="M13277 8393 c-25 -11 -40 -24 -45 -42 -4 -14 -6 -95 -5 -180 3 -188
10 -207 79 -197 80 11 113 31 136 83 19 43 20 59 14 181 -3 73 -11 142 -16
153 -9 16 -21 19 -68 18 -31 -1 -74 -8 -95 -16z m142 -25 c4 -13 11 -72 14
-133 6 -116 -11 -203 -41 -213 -11 -3 -12 0 -3 16 17 32 14 290 -3 325 -14 25
-13 27 5 27 11 0 23 -10 28 -22z m-48 -4 c10 -13 13 -53 11 -168 -3 -145 -4
-152 -27 -173 -15 -15 -37 -23 -59 -23 -30 0 -35 4 -40 28 -9 41 -11 284 -3
308 13 37 94 56 118 28z" />
        <path
            d="M12925 8370 c-11 -4 -31 -20 -44 -34 -24 -26 -25 -30 -23 -190 1
-223 10 -237 132 -211 83 18 105 28 121 56 13 25 13 317 0 352 -5 13 -17 27
-26 31 -23 9 -136 6 -160 -4z m138 -9 c13 -5 27 -17 31 -26 3 -9 8 -85 12
-170 5 -146 4 -155 -15 -174 -12 -12 -30 -21 -42 -21 -19 0 -19 1 -5 22 13 18
16 52 16 163 0 122 -3 144 -20 173 -28 46 -25 51 23 33z m-57 -19 c27 -18 34
-56 34 -194 0 -168 -5 -181 -77 -197 -70 -15 -82 3 -85 123 -3 186 2 239 24
259 20 17 83 23 104 9z" />
        <path
            d="M14680 7354 c0 -10 68 -100 87 -115 15 -13 15 -12 3 11 -26 50 -62
99 -76 104 -8 3 -14 3 -14 0z" />
        <path
            d="M8750 6872 c0 -31 201 -273 321 -387 71 -67 50 -39 -111 145 -75 85
-151 176 -169 203 -35 47 -41 54 -41 39z" />
        <path
            d="M8710 6776 c0 -46 183 -263 293 -347 l42 -33 -31 35 c-16 19 -63 70
-103 113 -40 44 -100 117 -133 163 -33 46 -62 83 -64 83 -2 0 -4 -6 -4 -14z" />
        <path
            d="M10452 6666 c77 -45 429 -115 608 -122 l125 -4 -200 30 c-110 17
-270 46 -355 65 -85 19 -166 38 -180 41 -25 5 -25 5 2 -10z" />
        <path
            d="M7800 6589 c0 -85 88 -283 201 -452 106 -160 110 -148 8 29 -103 179
-134 243 -173 362 -28 84 -36 97 -36 61z" />
        <path
            d="M10550 6560 c0 -16 71 -47 145 -63 77 -17 203 -32 195 -24 -3 3 -64
19 -136 35 -72 17 -147 37 -167 46 -20 8 -37 11 -37 6z" />
        <path
            d="M11794 6564 c-5 -2 -66 -11 -135 -19 l-124 -14 125 3 c87 2 136 7
160 19 31 14 32 15 10 15 -14 0 -30 -2 -36 -4z" />
        <path
            d="M6632 6468 c-46 -56 -63 -304 -29 -426 19 -69 84 -218 92 -210 3 3
-2 22 -10 42 -28 67 -65 220 -71 296 -7 79 8 205 31 271 14 38 7 51 -13 27z" />
        <path
            d="M11110 6420 c130 -23 351 -35 405 -22 l40 10 -45 1 c-25 1 -110 6
-190 11 -80 5 -183 12 -230 14 l-85 5 105 -19z" />
        <path
            d="M7944 6367 c47 -126 112 -238 203 -349 51 -63 103 -108 103 -90 0 5
-27 40 -60 78 -70 79 -148 201 -214 333 -26 50 -48 91 -51 91 -3 0 6 -28 19
-63z" />
        <path
            d="M6660 5783 c0 -20 87 -163 130 -218 59 -73 220 -229 220 -212 0 3
-46 57 -101 119 -56 62 -133 159 -171 216 -64 96 -78 113 -78 95z" />
        <path
            d="M10035 5715 c44 -36 149 -90 254 -129 99 -38 280 -90 287 -83 3 2
-37 19 -88 37 -219 78 -307 113 -386 155 -96 51 -110 55 -67 20z" />
        <path
            d="M6800 5713 c1 -34 119 -189 194 -254 29 -24 15 -3 -46 73 -48 58 -97
124 -110 147 -21 37 -38 52 -38 34z" />
        <path
            d="M10514 5625 c21 -16 153 -48 314 -76 122 -20 342 -27 342 -9 0 6 -28
10 -62 10 -97 0 -226 17 -420 55 -200 40 -200 39 -174 20z" />
        <path
            d="M10755 5495 c88 -26 262 -45 405 -45 77 0 140 4 140 8 0 5 -73 12
-162 16 -146 6 -274 16 -393 31 -38 4 -37 4 10 -10z" />
        <path
            d="M9960 4652 c50 -31 434 -122 510 -121 70 1 66 3 -245 69 -132 29
-249 54 -260 56 -16 4 -17 3 -5 -4z" />
        <path
            d="M10083 4530 c58 -36 428 -91 483 -73 25 8 17 11 -56 17 -73 6 -345
45 -420 61 -21 4 -22 4 -7 -5z" />
        <path
            d="M6350 4332 c0 -19 209 -68 261 -60 13 2 -34 16 -106 32 -71 16 -136
31 -142 33 -7 3 -13 1 -13 -5z" />
        <path d="M6400 4253 c0 -12 99 -33 149 -32 l36 1 -45 14 c-61 20 -140 29 -140
17z" />
        <path
            d="M10753 3230 c-101 -45 -256 -88 -518 -143 -11 -3 5 -5 36 -6 149 -3
478 92 528 153 17 21 5 20 -46 -4z" />
        <path d="M6300 3099 c0 -21 135 -55 250 -63 55 -5 68 -3 50 4 -46 18 -300 68
-300 59z" />
        <path
            d="M10300 3009 c-25 -5 -115 -9 -200 -10 -125 -2 -146 -4 -110 -11 113
-24 384 -9 440 23 19 11 -68 10 -130 -2z" />
        <path
            d="M6400 2355 c-41 -7 -158 -31 -260 -53 -102 -23 -202 -42 -223 -44
-21 -1 -40 -5 -43 -9 -8 -14 37 -21 84 -14 54 7 462 98 537 119 47 13 48 14
15 14 -19 0 -69 -6 -110 -13z" />
        <path
            d="M4995 2234 c22 -13 67 -38 101 -55 l61 -30 -5 -99 c-7 -152 9 -182
22 -40 l11 115 65 7 c168 20 463 78 500 99 10 6 5 7 -15 4 -539 -86 -518 -84
-583 -51 -50 25 -178 76 -191 76 -3 0 12 -12 34 -26z" />
        <path
            d="M6685 2199 c-139 -30 -197 -46 -345 -94 -91 -30 -185 -59 -209 -65
-60 -16 -41 -36 21 -22 50 11 601 182 607 188 7 6 -30 3 -74 -7z" />
        <path
            d="M4878 2021 c52 -34 170 -91 187 -91 34 0 10 19 -72 58 -49 22 -101
43 -118 47 l-30 7 33 -21z" />
        <path
            d="M5710 1955 c-113 -18 -262 -39 -332 -46 -71 -7 -128 -16 -128 -20 0
-25 133 -17 380 22 125 20 340 67 340 75 0 8 -59 1 -260 -31z" />
        <path
            d="M1385 15021 c-76 -6 -71 -6 80 -14 88 -4 206 -16 263 -25 102 -18
135 -15 65 6 -109 31 -267 44 -408 33z" />
        <path
            d="M6750 14965 c-15 -18 -20 -16 135 -48 225 -47 290 -52 650 -51 426 1
736 26 1000 78 l70 14 -50 1 c-27 0 -115 -4 -195 -9 -80 -6 -305 -14 -500 -20
-401 -10 -679 -1 -890 30 -162 24 -204 25 -220 5z" />
        <path
            d="M2207 14772 c-332 -172 -821 -454 -1140 -658 -117 -75 -216 -141
-222 -147 -27 -27 460 234 875 471 449 256 669 389 670 405 0 18 -41 2 -183
-71z" />
        <path
            d="M7092 14423 c4 -22 187 -115 302 -156 44 -15 77 -25 74 -22 -3 3 -82
43 -175 89 -94 46 -174 89 -177 95 -11 17 -28 13 -24 -6z" />
        <path
            d="M6700 14241 c0 -30 34 -65 161 -167 343 -275 731 -518 980 -613 99
-38 294 -94 310 -89 6 2 -27 19 -73 37 -207 84 -510 249 -749 406 -158 105
-508 363 -564 416 -35 33 -65 38 -65 10z" />
        <path
            d="M2799 13952 c-96 -86 -297 -265 -445 -398 -148 -133 -336 -299 -419
-370 -220 -189 -449 -394 -454 -406 -5 -13 -4 -13 141 84 179 119 322 237 668
553 480 437 652 600 675 639 52 88 38 80 -166 -102z" />
        <path
            d="M1735 13772 c-180 -121 -545 -395 -545 -408 0 -10 319 212 490 340
95 72 179 134 184 138 6 4 8 9 5 12 -3 3 -63 -34 -134 -82z" />
        <path
            d="M3007 13593 c-8 -10 -57 -89 -107 -177 -51 -87 -129 -218 -174 -290
-102 -163 -98 -156 -92 -156 9 0 166 220 229 321 127 206 206 370 144 302z" />
        <path
            d="M3322 13528 c-11 -18 -88 -231 -171 -473 -82 -242 -159 -466 -170
-497 -11 -32 -16 -58 -12 -58 10 0 135 269 195 418 75 187 218 626 208 636
-13 14 -32 4 -50 -26z" />
        <path d="M6102 13399 c-19 -17 -31 -33 -28 -37 4 -3 23 11 44 31 44 44 31 49
-16 6z" />
        <path
            d="M4981 13337 c-17 -17 -15 -32 53 -268 36 -123 105 -377 155 -564 112
-426 244 -860 227 -750 -28 179 -199 918 -266 1152 -66 228 -134 432 -145 437
-7 2 -18 -1 -24 -7z" />
        <path
            d="M3627 13173 c-10 -10 -31 -61 -47 -113 -31 -101 -84 -329 -78 -335 2
-2 30 85 63 193 33 108 67 212 77 231 10 19 18 37 18 38 0 9 -18 1 -33 -14z" />
        <path
            d="M4061 13112 c-14 -26 -26 -104 -66 -412 -20 -151 -51 -381 -70 -510
-40 -280 -87 -775 -72 -760 6 6 77 378 107 555 58 348 155 1106 146 1132 -8
19 -34 16 -45 -5z" />
        <path d="M4524 13053 c-8 -30 3 -299 16 -383 5 -36 7 27 6 177 -1 219 -6 269
-22 206z" />
        <path
            d="M5470 12994 c0 -10 5 -37 11 -59 14 -53 111 -297 116 -292 4 4 -114
357 -122 365 -3 3 -5 -3 -5 -14z" />
        <path
            d="M12963 12966 c-22 -7 -56 -24 -73 -36 -39 -28 -90 -105 -90 -137 0
-32 77 -168 122 -214 87 -90 194 -107 323 -53 53 22 76 39 97 69 34 48 31 78
-12 172 -68 147 -240 241 -367 199z m175 -48 c51 -24 136 -104 166 -157 l18
-33 -50 34 c-104 72 -212 76 -340 12 -72 -35 -76 -36 -89 -18 -7 10 -13 24
-13 31 0 39 57 106 115 136 45 24 136 21 193 -5z m103 -174 c89 -47 103 -63
89 -100 -6 -16 -21 -39 -33 -52 -22 -24 -102 -52 -149 -52 -15 0 -28 -5 -28
-11 0 -15 -53 -4 -108 23 -43 20 -132 119 -132 145 0 18 45 45 119 71 87 30
150 24 242 -24z" />
        <path d="M6735 12818 c-90 -54 -178 -138 -163 -154 5 -4 203 160 213 176 8 13
8 13 -50 -22z" />
        <path
            d="M6775 12787 c-144 -100 -245 -202 -245 -249 0 -7 11 3 24 22 24 36
102 107 239 219 67 55 85 72 75 71 -2 -1 -43 -29 -93 -63z" />
        <path
            d="M12460 12750 c0 -22 155 -182 255 -263 l40 -32 -50 65 c-65 86 -214
240 -231 240 -8 0 -14 -4 -14 -10z" />
        <path
            d="M13945 12516 c-73 -24 -180 -74 -173 -81 5 -5 261 60 296 75 12 5 22
14 22 20 0 17 -71 10 -145 -14z" />
        <path
            d="M6435 12455 c-49 -60 -105 -154 -105 -177 0 -30 19 -20 35 18 13 32
58 111 103 182 24 37 7 25 -33 -23z" />
        <path
            d="M12892 12310 c27 -36 73 -102 104 -147 54 -81 55 -83 52 -145 -1 -35
-1 -160 1 -278 3 -213 3 -214 18 -155 9 39 16 139 20 288 5 194 3 230 -10 245
-8 9 -22 32 -31 49 -19 38 -126 154 -170 186 -29 20 -27 17 16 -43z" />
        <path d="M13375 12274 c-94 -28 -256 -87 -261 -95 -24 -39 174 14 281 76 65
37 59 42 -20 19z" />
        <path
            d="M7501 12174 c-29 -31 -49 -59 -46 -62 3 -3 34 22 68 56 39 39 56 62
45 62 -9 0 -39 -25 -67 -56z" />
        <path
            d="M7456 12039 c-32 -34 -64 -72 -73 -85 -25 -39 -4 -42 27 -4 39 46
112 150 106 150 -2 0 -29 -27 -60 -61z" />
        <path
            d="M8522 11921 c-97 -81 -224 -233 -208 -249 4 -4 19 7 33 23 14 17 74
85 135 153 60 67 107 122 104 122 -3 0 -31 -22 -64 -49z" />
        <path
            d="M10584 10995 c-62 -29 -140 -64 -175 -77 -50 -18 -59 -24 -39 -26 48
-7 192 54 300 127 64 43 42 37 -86 -24z" />
        <path
            d="M9850 10941 c55 -43 310 -93 363 -71 20 8 18 9 -10 9 -41 1 -259 47
-314 66 -56 20 -69 18 -39 -4z" />
        <path
            d="M10060 10941 c0 -13 26 -27 69 -35 34 -6 160 10 173 22 4 4 -39 7
-95 7 -56 0 -112 4 -124 8 -15 5 -23 4 -23 -2z" />
        <path d="M10603 10893 c-64 -25 -87 -51 -35 -38 28 7 112 52 112 60 0 8 -14 5
-77 -22z" />
        <path
            d="M9871 10859 c29 -55 203 -95 372 -86 91 4 254 33 245 43 -2 2 -49 -2
-103 -7 -188 -20 -400 3 -483 52 -42 24 -45 24 -31 -2z" />
        <path
            d="M11065 10579 c-40 -12 -55 -35 -55 -85 0 -31 5 -47 20 -57 11 -8 18
-16 16 -18 -3 -2 -15 -76 -27 -164 -11 -88 -23 -161 -24 -163 -2 -2 -39 15
-84 37 -44 23 -86 41 -93 41 -7 0 -41 15 -76 33 l-64 32 6 72 c8 81 15 72 -97
132 -57 30 -57 30 -137 19 -44 -6 -87 -16 -94 -22 -10 -8 -15 -50 -19 -151 -3
-97 -2 -132 5 -115 5 14 12 76 15 138 5 89 9 112 20 107 7 -3 21 -8 31 -11 15
-5 15 -4 -1 9 -18 15 -18 15 0 20 78 23 105 20 185 -19 l78 -38 -1 -41 c-3
-97 -24 -121 -123 -139 l-39 -7 7 32 c3 17 6 49 6 70 0 34 3 39 23 39 12 1 33
7 47 15 29 17 18 19 -29 5 -26 -7 -39 -6 -59 8 l-27 16 18 -21 c13 -15 17 -31
13 -50 -12 -60 -17 -238 -7 -223 6 8 11 30 11 48 0 17 4 32 10 32 5 0 41 -14
80 -31 l70 -32 1 -51 c1 -30 4 -39 6 -21 8 70 11 73 67 89 30 9 56 16 59 16 2
0 1 -19 -4 -42 -4 -24 -8 -64 -9 -90 l0 -47 -57 20 c-31 10 -64 19 -74 19 -9
0 -68 23 -131 52 -62 28 -149 66 -192 84 l-79 33 34 15 34 16 -45 -6 c-25 -4
-46 -7 -48 -9 -3 -3 -58 -200 -76 -275 -22 -93 -45 -301 -45 -400 1 -47 -4
-113 -11 -147 -18 -90 -10 -110 55 -139 61 -27 304 -109 350 -118 53 -11 6 9
-160 69 -206 74 -235 89 -235 119 0 22 5 24 58 28 43 3 84 16 146 46 85 40 88
41 118 26 18 -9 59 -16 104 -17 60 -1 79 3 101 19 35 25 73 98 73 139 0 25 17
46 95 123 94 93 116 125 97 144 -12 12 -87 -3 -180 -38 l-63 -24 -49 25 c-27
14 -64 25 -83 25 -45 0 -133 -55 -174 -108 -29 -38 -33 -51 -33 -102 0 -37 -4
-60 -12 -63 -7 -2 -53 -35 -101 -71 -57 -43 -87 -61 -83 -49 3 11 11 104 17
209 5 104 14 212 18 239 7 44 77 295 84 302 5 4 210 -77 307 -122 52 -25 120
-51 150 -59 30 -8 80 -24 110 -35 30 -11 75 -25 98 -31 39 -10 43 -14 37 -33
-3 -12 -8 -74 -10 -137 l-4 -115 14 109 c20 160 17 153 78 166 28 6 66 18 82
25 l30 15 -44 -6 -44 -6 8 68 c4 38 8 70 9 71 1 1 40 -13 86 -32 47 -19 91
-35 98 -35 28 0 8 -17 -49 -39 -33 -13 -59 -25 -56 -27 2 -2 36 5 75 16 39 11
74 20 76 20 2 0 -4 -27 -15 -60 -32 -105 -49 -229 -48 -360 l2 -125 9 125 c9
128 48 347 72 403 14 35 11 58 -7 52 -7 -2 -61 15 -122 38 l-110 43 3 119 c4
183 18 242 64 257 4 2 12 27 17 57 8 52 8 53 -23 72 -17 10 -33 19 -36 18 -3
0 -18 -5 -35 -10z m74 -18 c11 -7 7 -14 -20 -30 -35 -21 -24 -30 13 -10 20 11
20 9 13 -27 -9 -52 -11 -54 -51 -54 -45 0 -74 16 -74 40 0 36 10 47 38 43 l27
-4 -24 14 c-23 14 -23 15 -5 25 23 14 64 15 83 3z m-54 -163 c-8 -27 -21 -144
-38 -348 l-12 -145 -35 0 c-35 0 -35 0 -32 40 4 50 22 72 22 27 0 -18 5 -32
10 -32 6 0 10 16 10 35 0 32 -5 37 -62 68 -82 45 -105 52 -110 33 -2 -9 -8
-12 -14 -8 -14 9 -6 72 9 72 27 0 167 -66 168 -80 2 -25 37 190 45 278 6 73 9
82 27 82 15 0 18 -4 12 -22z m-327 -225 l47 -27 -70 -16 -69 -16 -58 30 -59
30 52 22 c60 25 83 21 157 -23z m202 -167 c-11 -11 -110 45 -110 62 0 8 21 1
59 -20 33 -18 56 -37 51 -42z m-75 12 c65 -32 65 -33 65 -74 l0 -42 -57 15
c-87 23 -88 24 -85 82 2 28 6 51 8 51 2 0 33 -14 69 -32z m-160 -358 c-21 -23
-35 -26 -35 -6 0 13 15 21 44 25 5 0 1 -8 -9 -19z m-376 -204 c-2 -2 -20 -11
-39 -20 l-35 -17 24 21 c13 11 30 20 39 20 8 0 13 -2 11 -4z" />
        <path
            d="M9032 10504 c-12 -8 -29 -28 -37 -44 -24 -46 -17 -49 8 -5 32 56 72
65 164 37 37 -12 131 -35 208 -51 216 -45 206 -43 163 -27 -20 8 -97 27 -170
41 -73 15 -159 35 -190 46 -70 23 -116 24 -146 3z" />
        <path d="M6328 10485 c-28 -45 -55 -344 -32 -352 22 -7 36 61 41 192 5 131 3
178 -9 160z" />
        <path
            d="M9046 10402 c-31 -61 -88 -319 -126 -569 -30 -205 -33 -202 180 -275
202 -69 316 -85 347 -49 9 11 20 18 25 15 4 -3 8 -2 8 1 0 4 16 96 35 204 41
224 65 324 102 431 34 97 28 127 -25 135 -20 4 -102 25 -182 47 -246 70 -314
88 -332 88 -10 0 -24 -12 -32 -28z m204 -35 c86 -26 201 -56 255 -67 55 -11
106 -26 113 -34 11 -10 6 -34 -27 -132 -39 -116 -77 -286 -101 -449 -15 -104
-41 -162 -77 -176 -35 -13 -125 6 -307 66 -155 51 -186 73 -186 133 0 69 95
560 126 651 19 56 23 63 38 58 6 -2 81 -25 166 -50z" />
        <path
            d="M9085 10269 c-3 -8 -19 -88 -35 -179 -31 -169 -38 -247 -14 -150 24
98 66 332 60 337 -3 3 -8 0 -11 -8z" />
        <path d="M9512 10145 c-31 -114 -93 -477 -79 -465 8 8 98 481 94 494 -2 6 -9
-7 -15 -29z" />
        <path d="M9091 10129 c-17 -80 -31 -173 -28 -182 7 -19 39 139 34 165 -2 12
-5 20 -6 17z" />
        <path d="M9452 10113 c-13 -24 -45 -217 -40 -240 2 -10 16 42 31 116 26 131
28 161 9 124z" />
        <path d="M9117 10068 c-11 -47 -17 -143 -8 -122 13 29 29 144 20 144 -4 0 -9
-10 -12 -22z" />
        <path d="M9387 10075 c-11 -34 -24 -144 -16 -140 9 6 32 131 27 147 -3 8 -7 6
-11 -7z" />
        <path d="M6684 10344 c-73 -75 -89 -103 -40 -70 23 14 126 131 126 142 0 12
-18 -3 -86 -72z" />
        <path
            d="M9632 10376 c52 -29 90 -71 84 -95 -2 -9 -14 -61 -27 -116 -12 -55
-39 -169 -61 -253 -21 -84 -38 -165 -37 -180 1 -27 77 266 119 455 22 101 22
103 3 135 -19 33 -59 61 -103 72 -14 4 -4 -5 22 -18z" />
        <path d="M5992 10374 c9 -36 84 -204 91 -204 27 -1 -15 128 -58 176 -20 21
-35 34 -33 28z" />
        <path
            d="M8921 10223 c-60 -294 -85 -495 -71 -572 4 -23 18 -53 31 -67 38 -40
214 -122 321 -149 203 -51 301 -43 333 27 16 37 58 228 51 235 -2 2 -16 -48
-31 -111 -23 -99 -31 -119 -57 -141 -25 -21 -40 -25 -96 -25 -130 0 -380 77
-474 145 -36 26 -50 44 -58 75 -17 63 -4 216 35 430 47 252 49 260 43 260 -3
0 -15 -48 -27 -107z" />
        <path d="M10457 10306 c-4 -10 -5 -21 -2 -24 9 -9 17 6 13 25 -3 17 -4 17 -11
-1z" />
        <path
            d="M10475 10265 c-3 -26 -4 -49 -2 -52 3 -3 9 16 12 42 4 25 5 48 2 51
-2 3 -8 -16 -12 -41z" />
        <path d="M7020 10256 c-128 -47 -417 -221 -320 -191 33 9 278 137 329 171 57
37 55 43 -9 20z" />
        <path
            d="M6485 10140 c-33 -16 -98 -60 -145 -99 -82 -67 -86 -69 -108 -54 -40
25 -128 52 -213 63 -122 17 -139 5 -113 -78 19 -58 75 -137 115 -161 l30 -18
-47 -18 c-49 -19 -179 -102 -206 -132 -9 -10 -19 -30 -23 -44 -6 -23 -2 -28
29 -43 80 -38 206 -42 312 -11 18 6 25 -2 49 -52 40 -80 110 -149 166 -161 41
-9 46 -8 71 19 24 25 48 87 62 159 5 25 7 25 88 25 97 0 204 21 212 42 14 35
-83 137 -172 182 -33 17 -42 26 -37 39 19 49 35 145 34 207 -1 75 -18 157 -34
161 -5 2 -37 -10 -70 -26z m59 -165 c-3 -33 -13 -87 -21 -120 -34 -131 -33
-125 -9 -119 23 5 116 -56 164 -109 l24 -25 -34 -8 c-18 -4 -78 -8 -133 -8
l-100 -1 -5 -46 c-6 -48 -51 -199 -60 -199 -19 0 -141 128 -173 182 l-37 64
-73 -9 c-87 -10 -235 -5 -261 10 -17 10 -14 15 40 54 33 24 101 66 152 94 51
27 92 53 92 57 0 4 -6 5 -13 2 -15 -6 -76 66 -128 151 -21 36 -39 66 -39 68 0
2 28 0 63 -5 85 -11 229 -56 245 -76 9 -12 17 -14 26 -7 8 6 72 54 143 108
l128 98 8 -48 c4 -26 5 -75 1 -108z" />
        <path
            d="M10270 10063 c0 -9 117 -71 174 -93 41 -15 110 -30 100 -21 -5 4 -38
18 -74 31 -36 12 -92 37 -125 54 -78 40 -75 39 -75 29z" />
        <path
            d="M10246 9993 c-32 -96 -46 -190 -51 -333 -4 -155 -5 -159 25 126 6 56
20 134 31 174 23 83 19 106 -5 33z" />
        <path d="M12264 9938 c-60 -82 -88 -138 -76 -150 6 -6 26 19 54 69 91 158 98
184 22 81z" />
        <path
            d="M11350 9931 c0 -5 42 -23 94 -40 77 -25 110 -31 173 -30 l78 2 -85 9
c-47 5 -123 22 -170 39 -96 33 -90 32 -90 20z" />
        <path
            d="M6738 9913 c-10 -2 -18 -9 -18 -14 0 -14 110 -9 150 6 34 13 33 13
-40 13 -41 0 -83 -2 -92 -5z" />
        <path
            d="M10660 9896 c0 -5 32 -14 103 -30 15 -4 27 -2 27 3 0 5 -12 12 -27
15 -71 14 -103 18 -103 12z" />
        <path
            d="M5726 9861 c7 -8 107 -41 122 -41 2 0 -1 6 -7 14 -7 8 -35 19 -62 25
-61 13 -66 13 -53 2z" />
        <path
            d="M13820 9804 c-127 -38 -343 -144 -326 -161 2 -3 33 11 68 30 35 19
128 61 208 92 189 75 199 83 50 39z" />
        <path d="M13847 9735 c-70 -24 -123 -53 -113 -62 4 -5 194 72 205 83 10 10
-29 1 -92 -21z" />
        <path
            d="M6787 9733 c-19 -30 41 -53 153 -59 47 -2 107 -7 134 -9 75 -7 44 11
-69 39 -118 30 -210 42 -218 29z" />
        <path
            d="M5165 9701 c-15 -6 -4 -10 45 -15 36 -4 109 -14 164 -22 166 -24 268
-28 290 -11 19 14 19 15 -10 21 -113 23 -455 42 -489 27z" />
        <path
            d="M11319 9674 c18 -8 47 -17 65 -20 27 -4 25 -2 -14 15 -25 11 -54 20
-65 20 -14 -1 -10 -5 14 -15z" />
        <path
            d="M10825 9537 c-4 -18 -5 -108 -3 -200 2 -97 -1 -168 -6 -170 -5 -2
-57 5 -115 15 -123 21 -157 18 -56 -5 116 -26 171 -31 181 -16 8 12 15 409 8
409 -2 0 -6 -15 -9 -33z" />
        <path
            d="M13301 9519 c-77 -48 -122 -86 -178 -151 -68 -79 -51 -92 19 -14 34
37 102 99 151 137 100 78 103 87 8 28z" />
        <path d="M10930 9372 c0 -96 4 -153 11 -157 11 -8 7 290 -5 302 -3 3 -6 -62
-6 -145z" />
        <path
            d="M5544 9460 c-65 -33 -118 -70 -202 -137 -9 -7 -14 -15 -11 -17 2 -2
47 21 99 51 52 30 125 70 163 89 37 19 67 39 67 44 0 20 -40 9 -116 -30z" />
        <path
            d="M6580 9459 c0 -6 28 -39 61 -72 58 -59 60 -60 39 -22 -25 43 -79 105
-92 105 -4 0 -8 -5 -8 -11z" />
        <path
            d="M5893 9384 c-49 -36 -132 -122 -133 -137 0 -9 45 23 142 102 60 48
75 71 48 71 -5 0 -30 -16 -57 -36z" />
        <path d="M11290 9412 c0 -11 19 -16 124 -32 90 -14 96 -6 9 13 -124 28 -133
29 -133 19z" />
        <path d="M6092 9328 c-38 -49 -133 -288 -113 -288 11 0 119 230 127 268 7 34
3 40 -14 20z" />
        <path d="M6495 9309 c11 -52 64 -194 80 -215 17 -22 -11 88 -45 180 -25 65
-46 86 -35 35z" />
        <path d="M6317 9263 c-9 -8 -9 -60 -1 -90 12 -43 24 -23 24 37 0 55 -6 70 -23
53z" />
        <path
            d="M11236 9168 l-8 -108 -37 -9 c-20 -6 -74 -17 -121 -26 -47 -8 -93
-18 -102 -21 -15 -4 -18 2 -19 38 -1 24 -5 54 -9 68 -6 18 -8 7 -9 -42 -1 -67
-1 -67 -25 -58 -40 15 -348 81 -360 77 -6 -2 70 -23 169 -46 99 -23 189 -46
200 -50 29 -12 301 40 326 62 11 9 13 35 9 117 l-5 105 -9 -107z" />
        <path
            d="M10290 9247 c0 -3 30 -10 68 -17 37 -6 78 -13 92 -16 14 -2 7 3 -14
11 -41 16 -146 32 -146 22z" />
        <path
            d="M10185 9121 c11 -19 80 -50 170 -76 127 -37 127 -29 0 14 -60 21
-125 46 -144 55 -18 10 -30 13 -26 7z" />
        <path
            d="M11246 9021 c-7 -10 75 -45 159 -66 61 -15 200 -19 245 -6 15 5 -18
8 -80 9 -81 1 -126 7 -194 27 -49 14 -97 30 -107 35 -10 6 -20 6 -23 1z" />
        <path
            d="M14115 8908 c-33 -17 -103 -49 -155 -70 -97 -38 -97 -51 1 -22 65 19
181 78 205 105 23 25 19 24 -51 -13z" />
        <path
            d="M9703 8887 c11 -34 260 -125 467 -171 109 -24 291 -47 349 -45 29 1
24 2 -224 51 -190 36 -361 84 -497 137 -54 22 -97 34 -95 28z" />
        <path
            d="M14045 8774 c-141 -72 -153 -91 -22 -39 68 28 177 93 177 106 0 5 -1
9 -2 9 -2 0 -70 -34 -153 -76z" />
        <path
            d="M11721 8614 c-36 -8 -173 -30 -305 -49 -133 -18 -254 -36 -271 -39
-16 -2 29 -3 100 0 181 5 561 66 589 94 14 14 -33 11 -113 -6z" />
        <path
            d="M9300 8387 c14 -6 108 -49 210 -95 353 -162 466 -203 605 -221 193
-25 247 -23 95 4 -184 32 -325 80 -610 208 -159 71 -282 117 -308 116 -12 0
-9 -4 8 -12z" />
        <path
            d="M1710 8346 c0 -35 143 -486 171 -538 14 -26 29 -22 29 9 0 25 -45
185 -107 378 -34 106 -93 202 -93 151z" />
        <path
            d="M12250 8216 c-69 -36 -261 -111 -468 -183 -161 -56 -179 -64 -127
-58 160 18 522 157 615 235 42 35 39 36 -20 6z" />
        <path
            d="M8720 8201 c0 -24 248 -171 370 -219 131 -52 129 -46 -10 25 -119 62
-219 118 -327 185 -18 11 -33 15 -33 9z" />
        <path d="M2719 7918 c-211 -160 -412 -338 -398 -352 8 -9 539 434 539 450 0 9
-13 0 -141 -98z" />
        <path
            d="M10583 8004 c8 -9 336 -33 442 -34 88 0 239 15 289 28 13 4 -147 8
-356 9 -210 2 -378 0 -375 -3z" />
        <path
            d="M10286 7850 c33 -33 396 -71 499 -52 l50 10 -55 1 c-87 2 -277 21
-370 36 -102 18 -138 19 -124 5z" />
        <path
            d="M10560 7732 c0 -27 209 -55 246 -34 16 10 12 11 -26 12 -47 0 -172
17 -202 26 -10 3 -18 1 -18 -4z" />
        <path d="M1601 7648 c33 -49 101 -118 116 -118 37 0 -10 70 -81 121 -51 38
-63 37 -35 -3z" />
        <path
            d="M1921 7631 c-11 -11 -25 -37 -30 -58 -20 -70 -34 -225 -29 -325 4
-86 3 -100 -11 -105 -161 -48 -292 -132 -382 -245 -26 -33 -28 -39 -17 -63 25
-56 176 -108 309 -107 l86 0 -8 -41 c-13 -68 -10 -267 5 -332 21 -89 69 -114
144 -75 62 33 196 180 233 256 l31 63 40 -20 c103 -53 320 -76 435 -48 l45 12
-6 40 c-13 80 -92 189 -200 275 l-39 31 39 53 c87 118 109 159 124 236 7 42 7
43 -34 67 -61 36 -164 51 -270 39 l-87 -10 -28 51 c-58 102 -221 268 -308 314
-19 10 -26 8 -42 -8z m104 -101 c82 -74 247 -259 240 -270 -7 -12 -3 -13 155
-14 113 -2 250 -20 250 -34 0 -19 -177 -296 -192 -300 -10 -2 -18 -9 -18 -14
0 -5 39 -46 86 -91 48 -45 113 -116 145 -159 l57 -76 -78 -7 c-95 -8 -148 -3
-301 32 l-116 26 -42 -45 c-22 -25 -53 -61 -68 -80 -111 -138 -188 -208 -230
-208 -18 0 -23 8 -29 48 -10 68 -10 261 0 376 7 82 6 98 -5 94 -8 -3 -15 -15
-17 -27 -2 -12 -10 -25 -17 -27 -32 -13 -293 52 -345 86 -33 21 147 168 295
242 39 19 75 33 82 31 13 -5 20 46 28 228 5 116 20 232 32 252 6 9 20 -1 88
-63z" />
        <path
            d="M2646 7559 c-46 -31 -84 -74 -73 -85 3 -3 34 22 69 55 34 33 60 60
57 61 -3 0 -27 -14 -53 -31z" />
        <path
            d="M3185 7437 c-224 -117 -362 -206 -394 -257 l-16 -25 30 20 c17 10 93
56 170 101 224 132 363 224 340 224 -5 0 -64 -29 -130 -63z" />
        <path
            d="M9564 7368 c-9 -14 -3 -17 55 -28 58 -11 499 -34 546 -28 50 6 -136
27 -335 38 -102 6 -202 14 -223 19 -23 6 -39 5 -43 -1z" />
        <path
            d="M1500 7320 c37 -47 81 -80 106 -80 14 0 11 8 -17 36 -31 34 -101 84
-115 84 -3 0 9 -18 26 -40z" />
        <path
            d="M10940 7310 c-73 -13 -124 -29 -145 -44 -35 -25 -9 -28 56 -5 56 18
79 20 184 16 77 -3 158 -14 225 -30 58 -13 135 -27 170 -31 l65 -5 -60 20
c-192 63 -399 97 -495 79z" />
        <path
            d="M940 7137 c3 -3 67 -23 143 -46 76 -23 163 -53 193 -66 60 -27 69
-20 24 18 -35 30 -125 65 -195 77 -74 13 -171 23 -165 17z" />
        <path
            d="M2905 6974 c-72 -15 -145 -38 -145 -45 0 -20 97 -3 171 30 35 15 39
19 19 19 -14 0 -34 -2 -45 -4z" />
        <path d="M1290 6701 c-82 -30 -124 -50 -118 -56 11 -11 228 63 228 77 0 14
-34 7 -110 -21z" />
        <path
            d="M2881 6583 c0 -11 339 -234 404 -266 60 -30 125 -57 125 -53 0 6
-270 200 -330 238 -100 64 -201 105 -199 81z" />
        <path
            d="M1530 6499 c-119 -64 -345 -217 -472 -319 -64 -52 -115 -96 -114 -98
7 -6 225 123 331 196 100 69 252 180 315 231 45 36 16 31 -60 -10z" />
        <path d="M2716 6421 c-7 -10 83 -96 91 -87 6 6 -52 76 -73 89 -7 4 -15 3 -18
-2z" />
        <path d="M1691 6274 c-31 -66 -41 -95 -33 -90 14 8 54 96 50 108 -2 6 -10 -3
-17 -18z" />
        <path
            d="M2445 6255 c4 -22 29 -94 56 -160 28 -66 81 -199 120 -295 103 -257
154 -379 157 -375 14 14 -112 361 -231 636 -43 97 -77 181 -77 186 0 5 -7 18
-16 29 -14 18 -15 16 -9 -21z" />
        <path d="M2231 6266 c-16 -19 6 -124 44 -221 29 -74 30 -53 6 99 -21 125 -30
147 -50 122z" />
        <path
            d="M1986 6181 c-4 -5 -20 -56 -37 -113 -34 -115 -58 -184 -118 -337 -22
-58 -39 -106 -38 -108 5 -5 93 184 122 262 32 85 88 295 82 302 -3 2 -8 0 -11
-6z" />
        <path
            d="M13254 5115 c-52 -61 -94 -142 -94 -182 0 -18 4 -33 8 -33 11 0 137
248 130 256 -3 3 -23 -15 -44 -41z" />
        <path
            d="M12845 5095 c7 -55 54 -161 70 -158 21 5 16 48 -14 107 -16 33 -37
70 -46 81 -15 19 -16 17 -10 -30z" />
        <path
            d="M13576 5030 c-145 -140 -225 -247 -158 -211 38 20 288 311 268 311
-3 0 -53 -45 -110 -100z" />
        <path
            d="M12350 5013 c0 -14 104 -139 184 -221 66 -68 122 -110 132 -99 6 6
-196 222 -263 282 -29 26 -53 43 -53 38z" />
        <path
            d="M12892 4793 c-11 -27 -26 -68 -33 -93 -14 -50 -18 -230 -7 -271 l8
-27 -84 -4 c-103 -5 -177 -38 -235 -105 -50 -56 -46 -68 42 -124 72 -47 155
-73 202 -65 l33 7 -9 -38 c-12 -53 -11 -210 2 -257 6 -21 22 -49 35 -63 l24
-24 40 22 c80 45 190 169 206 233 6 26 7 25 76 -39 80 -74 148 -111 236 -127
84 -16 97 -4 96 90 -1 83 -22 149 -73 226 l-40 59 52 31 c62 37 140 136 161
204 14 46 14 47 -12 69 -82 69 -261 79 -374 22 l-37 -19 -10 33 c-25 74 -164
242 -225 271 -20 9 -36 21 -36 26 0 25 -19 5 -38 -37z m241 -233 c33 -47 61
-86 62 -87 0 -1 34 7 75 18 95 25 181 24 264 -1 36 -12 66 -23 66 -27 0 -3
-14 -31 -32 -62 -40 -70 -163 -192 -185 -184 -21 8 -12 -20 38 -117 38 -76 69
-173 69 -218 0 -24 -2 -24 -46 -18 -64 8 -116 34 -214 105 -47 33 -91 61 -97
61 -7 0 -13 5 -13 10 0 25 -17 5 -44 -52 -21 -45 -52 -84 -119 -151 l-91 -89
-10 28 c-5 16 -10 106 -10 201 -1 135 -3 169 -13 161 -26 -22 -163 19 -252 76
l-43 28 23 24 c13 14 52 39 88 57 56 27 77 32 163 35 90 4 98 6 85 21 -18 21
-6 234 18 341 l18 75 69 -75 c39 -41 97 -113 131 -160z" />
        <path d="M13775 4782 c-87 -41 -185 -122 -147 -122 22 0 192 126 181 134 -2 1
-17 -4 -34 -12z" />
        <path d="M12345 4553 c14 -14 121 -53 146 -53 28 0 19 22 -15 38 -34 17 -145
29 -131 15z" />
        <path
            d="M13721 4305 c36 -37 253 -46 424 -19 55 9 104 21 109 25 6 5 -111 9
-269 9 -247 0 -278 -2 -264 -15z" />
        <path
            d="M12265 4119 c-150 -11 -407 -47 -419 -60 -17 -16 207 -10 403 11 191
20 221 26 221 39 0 9 -53 22 -74 20 -6 -1 -65 -6 -131 -10z" />
        <path d="M13675 4061 c-9 -16 31 -31 82 -31 l48 1 -35 19 c-38 21 -85 26 -95
11z" />
        <path d="M12577 3853 c-26 -26 -45 -49 -43 -51 13 -12 130 74 120 89 -11 18
-32 8 -77 -38z" />
        <path
            d="M13620 3836 c0 -23 45 -70 196 -207 135 -123 202 -176 258 -206 l30
-15 -31 38 c-43 54 -277 281 -342 333 -30 23 -67 49 -83 57 -25 13 -28 13 -28
0z" />
        <path d="M13195 3660 c-15 -24 47 -455 69 -477 11 -12 -24 395 -41 465 -5 23
-18 29 -28 12z" />
        <path
            d="M13410 3645 c0 -16 32 -64 60 -90 l32 -30 -17 35 c-25 49 -55 90 -66
90 -5 0 -9 -2 -9 -5z" />
        <path d="M12678 3590 c-50 -79 -168 -280 -168 -287 0 -25 143 169 171 231 24
56 23 96 -3 56z" />
        <path d="M12940 3570 c-14 -26 -26 -178 -13 -165 20 20 43 96 43 140 0 48 -12
58 -30 25z" />
        <path
            d="M10754 1249 c-256 -152 -283 -169 -269 -169 5 0 86 41 179 92 260
139 382 218 338 218 -5 0 -116 -64 -248 -141z" />
        <path
            d="M9859 969 c24 -10 68 -22 98 -25 38 -5 53 -11 49 -20 -3 -7 0 -14 5
-16 7 -2 7 -18 0 -48 -6 -25 -11 -66 -11 -91 l0 -47 -43 -6 c-38 -6 -156 3
-258 19 -30 5 -29 4 14 -15 160 -68 440 -38 706 76 58 24 117 52 131 60 29 18
27 17 -115 -32 -166 -58 -334 -104 -381 -104 -24 0 -44 1 -44 3 2 22 51 191
57 196 4 4 41 18 81 31 39 13 72 27 72 31 0 7 -100 -13 -151 -30 -14 -5 -32
-5 -40 -1 -16 9 -173 40 -198 39 -9 0 4 -9 28 -20z" />
        <path
            d="M9540 739 c0 -20 70 -79 129 -109 31 -15 90 -38 131 -50 109 -32 109
-31 80 -41 -15 -5 13 -7 75 -4 147 6 314 56 443 131 24 14 42 28 40 30 -3 2
-41 -12 -86 -31 -95 -40 -221 -79 -309 -96 -59 -11 -66 -10 -180 26 -130 41
-194 70 -266 121 -52 37 -57 39 -57 23z" />
    </g>
</svg>