<svg version="1.1" id="Layer_1" xmlns="http://www.w3.org/2000/svg"
	xmlns:xlink="http://www.w3.org/1999/xlink" x="0px" y="0px"
	width="100%" viewBox="0 0 1500 1600" enable-background="new 0 0 1500 1600" xml:space="preserve">
<path fill="#FEFEFE" opacity="0.3" stroke="none" 
	d="
M1018.971802,1095.546387 
	C1015.702637,1097.833496 1012.433533,1100.120605 1008.625000,1102.698608 
	C1003.048889,1106.651245 998.012329,1110.312988 992.975708,1113.974731 
	C967.430359,1131.055908 940.625244,1145.871216 911.701416,1156.302612 
	C891.141235,1163.717651 870.353882,1170.901978 849.146851,1176.036987 
	C809.644287,1185.601929 769.333923,1189.310059 728.722900,1186.219849 
	C706.873840,1184.557373 684.957642,1182.214478 663.430725,1178.236206 
	C628.394653,1171.761475 594.961975,1159.948120 562.765381,1144.514038 
	C519.721802,1123.880371 481.112885,1097.051880 447.026459,1063.669434 
	C446.556915,1063.209595 445.955750,1062.884155 445.205750,1061.907715 
	C444.631104,1060.623779 444.266663,1059.928223 443.874603,1058.897461 
	C443.211212,1058.053589 442.575470,1057.544922 441.969910,1057.022339 
	C442.000092,1057.008545 441.962189,1057.062866 441.922913,1056.712402 
	C440.062561,1053.880371 438.053101,1051.512573 436.471527,1048.886841 
	C434.766754,1046.056763 433.462738,1042.985107 431.991302,1040.010742 
	C431.998688,1040.002563 432.016022,1039.985962 432.374329,1039.933716 
	C434.721375,1040.191650 437.003174,1039.985840 438.640137,1040.915405 
	C442.486847,1043.100098 446.014160,1043.567505 449.889404,1041.121948 
	C451.437531,1040.145020 453.326294,1039.708008 455.059998,1039.025146 
	C455.386505,1039.532471 455.713013,1040.039917 456.039551,1040.547241 
	C453.820679,1042.268677 451.814056,1044.455200 449.327484,1045.590210 
	C446.430054,1046.912842 445.333984,1048.400024 446.713837,1051.322266 
	C447.978302,1054.000122 449.870087,1055.991577 452.979919,1054.379395 
	C456.041138,1052.792358 459.149078,1051.015869 461.650421,1048.691772 
	C465.775513,1044.859009 466.015961,1037.981079 462.723358,1033.620483 
	C459.733276,1029.660522 453.967529,1028.858887 448.737000,1031.466309 
	C447.229462,1032.217773 445.442139,1032.407959 443.783112,1032.855591 
	C443.604767,1032.364990 443.426453,1031.874268 443.248138,1031.383545 
	C445.778320,1029.439941 449.073395,1027.973022 450.654144,1025.437500 
	C452.859650,1021.899658 454.766785,1022.642212 456.989441,1024.597656 
	C459.736786,1027.014771 462.155701,1029.800781 464.837677,1032.297363 
	C468.255096,1035.478271 472.076355,1036.968628 476.649292,1034.620117 
	C479.096924,1033.363281 481.891724,1032.068359 480.566101,1028.741821 
	C479.426666,1025.882568 477.934540,1022.729370 473.539825,1025.094971 
	C471.591370,1026.143799 462.201141,1018.359497 462.541809,1016.026611 
	C462.705902,1014.902710 463.790924,1013.630798 464.813660,1013.013794 
	C465.498840,1012.600464 466.994446,1012.930359 467.793823,1013.445435 
	C469.028442,1014.240906 469.960602,1015.497375 471.051483,1016.526062 
	C473.165588,1018.519531 474.879211,1018.164368 476.491028,1015.749268 
	C483.214996,1022.052307 489.492584,1028.356445 496.067719,1034.333252 
	C529.242249,1064.489502 566.764404,1087.883179 608.265808,1104.622681 
	C639.973938,1117.412231 672.899780,1125.650635 707.014771,1129.574463 
	C765.774292,1136.333008 822.922607,1129.838135 878.590515,1110.330444 
	C905.718811,1100.823975 931.334656,1088.073975 955.641907,1072.580322 
	C992.365784,1049.172241 1024.001343,1020.278748 1050.987671,986.197693 
	C1069.892212,962.323181 1085.829834,936.560059 1098.038818,908.695129 
	C1105.079590,892.625610 1111.325073,876.109375 1116.533813,859.360474 
	C1123.050537,838.405884 1126.997559,816.828979 1129.602783,794.951172 
	C1135.348633,746.696045 1131.823975,699.109131 1119.255859,652.367920 
	C1114.152344,633.387756 1106.745605,614.942505 1099.306885,596.694092 
	C1087.358154,567.381836 1070.527344,540.822937 1051.015625,515.578369 
	C1049.799072,513.904053 1048.691650,512.510986 1047.471924,511.224548 
	C1043.634644,507.177124 1039.754883,503.169739 1035.614746,498.940369 
	C1033.834595,496.603729 1032.621948,494.173309 1030.781128,492.392151 
	C1018.705750,480.708008 1006.973267,468.605621 994.232056,457.686188 
	C964.332153,432.061646 930.674377,412.312958 894.246948,397.562988 
	C862.559509,384.732269 829.643860,376.469635 795.556824,372.466858 
	C743.368530,366.338501 692.176575,370.800354 641.932068,385.597809 
	C613.711182,393.909119 586.868408,405.662842 561.274536,420.385803 
	C526.470215,440.407135 495.697418,465.273132 468.730957,494.927612 
	C431.167328,536.235596 404.054169,583.530884 387.289215,636.813843 
	C379.372772,661.974243 373.615082,687.600586 371.807800,713.879700 
	C370.415894,734.118469 370.651123,754.469116 370.074554,775.227722 
	C370.377838,778.799561 370.769409,781.913635 371.222046,785.398499 
	C371.323425,787.017273 371.363708,788.265381 371.281433,789.924194 
	C371.034637,791.814209 370.910370,793.293579 370.791901,794.704224 
	C369.202179,795.209229 367.753540,795.669373 366.441925,796.086060 
	C369.200500,801.095154 371.690094,805.615906 374.307556,810.493652 
	C374.482483,811.603882 374.529510,812.357056 374.408875,813.391968 
	C374.746704,815.140442 375.252228,816.607239 375.827515,818.483276 
	C376.052521,820.212708 376.032837,821.582214 376.389221,822.845581 
	C382.050964,842.916565 387.052551,863.209412 393.624725,882.979614 
	C403.642670,913.115173 418.829681,940.817383 436.807953,966.920471 
	C444.477234,978.055603 453.056427,988.564026 461.227539,999.749207 
	C461.962311,1000.710693 462.691711,1001.280212 463.607971,1001.918579 
	C464.023224,1002.161438 464.137939,1002.392090 464.086304,1003.073730 
	C461.056549,1007.760498 456.119324,1008.237732 452.285339,1004.898193 
	C450.965302,1003.748474 449.025452,1003.310425 447.368744,1002.547302 
	C446.585663,1004.462585 445.509521,1006.322815 445.135254,1008.314941 
	C444.928528,1009.415222 445.693298,1010.867859 446.374939,1011.934998 
	C448.898926,1015.886292 447.177460,1018.369629 443.459595,1019.604065 
	C437.676453,1021.524231 434.264771,1025.223145 433.730286,1029.668091 
	C430.032074,1031.658325 427.364258,1033.140869 424.649780,1034.532227 
	C423.526245,1035.108154 422.302704,1035.488770 421.124634,1035.958252 
	C412.028473,1024.425781 402.036987,1013.477539 394.043457,1001.225647 
	C381.676178,982.270386 369.877411,962.845154 359.312744,942.840210 
	C348.405334,922.186218 339.617523,900.424316 333.821075,877.695496 
	C328.654053,857.434814 323.139404,837.166992 319.719208,816.579834 
	C314.965668,787.966675 314.126678,758.986023 315.371582,729.933289 
	C316.645233,700.209778 320.645813,670.858154 328.541260,642.285339 
	C334.485901,620.772217 342.165649,599.662109 350.293610,578.849304 
	C359.283295,555.829956 371.213867,534.148743 385.083435,513.675415 
	C393.967896,500.560822 403.706573,488.024902 413.452606,475.562408 
	C413.428223,480.688171 415.674835,482.190552 420.352234,482.053558 
	C429.808228,481.776642 439.280487,481.923920 448.743164,482.075165 
	C452.141815,482.129456 454.125519,481.181305 454.201630,477.427643 
	C454.399689,467.657166 454.670532,457.887512 455.007904,448.120819 
	C455.151825,443.953430 454.356476,440.837463 449.206848,440.853271 
	C448.428497,440.855682 447.646027,439.516571 446.865479,438.798035 
	C456.768951,429.845612 466.424072,420.598236 476.629669,412.004608 
	C495.510010,396.106384 516.110901,382.643188 538.141296,370.270447 
	C539.505798,369.604065 540.255554,369.080597 541.313599,368.363159 
	C543.463501,367.135468 545.305237,366.101715 547.336426,365.018494 
	C547.781494,364.841644 547.928345,364.636475 547.966553,364.353516 
	C549.655151,363.506165 551.343811,362.658783 553.018188,361.413788 
	C553.003906,361.016174 553.074585,361.070709 553.074585,361.070679 
	C558.671265,358.770966 564.352356,356.655640 569.850525,354.140472 
	C598.308533,341.122101 627.819031,331.422363 658.406677,324.714813 
	C693.413086,317.038116 728.778870,314.089355 764.524719,315.116608 
	C791.023682,315.878082 817.195679,319.118347 843.175659,324.624146 
	C877.781494,331.958008 910.915527,343.442139 942.585449,358.946136 
	C993.623108,383.931671 1038.125977,417.733429 1076.024414,460.144806 
	C1076.356445,460.516418 1076.726685,460.854095 1077.491699,461.706604 
	C1079.570923,464.166412 1081.237305,466.127289 1083.125732,468.325500 
	C1084.546143,469.734436 1085.744507,470.906036 1087.013306,472.396118 
	C1088.032837,473.477051 1088.981934,474.239441 1089.930908,475.001892 
	C1091.070557,476.918152 1092.210205,478.834381 1093.826904,481.130493 
	C1095.324585,482.770966 1096.345093,484.031586 1097.365601,485.292236 
	C1106.312256,498.561493 1115.640503,511.592194 1124.120117,525.153503 
	C1138.379761,547.958801 1150.374634,571.983154 1159.092896,597.452087 
	C1165.316162,615.632019 1171.462280,633.935852 1175.953125,652.591064 
	C1185.428955,691.956604 1189.122192,732.042236 1186.301392,772.489685 
	C1184.903442,792.535461 1182.653564,812.577087 1179.568237,832.430908 
	C1177.433838,846.165588 1173.560059,859.672119 1169.845093,873.109680 
	C1163.293701,896.806274 1154.276001,919.640747 1143.513794,941.709351 
	C1131.384521,966.581238 1117.521118,990.541809 1100.166504,1012.156067 
	C1086.954346,1028.611084 1072.625854,1044.169800 1058.350220,1060.558594 
	C1056.928101,1062.238159 1055.949951,1063.486572 1054.633911,1064.833008 
	C1052.214478,1066.640381 1050.132812,1068.349854 1047.729492,1070.150635 
	"/>
<path fill="#FFFFFF" opacity="0.6" stroke="none" 
	d="
M952.932983,792.936768 
	C923.226074,810.026733 893.869324,827.004822 864.515503,843.987854 
	C830.433167,863.706726 796.363770,883.447632 762.269836,903.146301 
	C732.338501,920.439941 702.398193,937.718323 672.423584,954.936768 
	C664.251160,959.631165 656.099487,964.407349 647.655151,968.572083 
	C635.479187,974.577148 622.642639,972.597107 614.693298,963.775146 
	C609.755371,958.295166 607.161499,951.573425 607.034851,944.256042 
	C606.758179,928.276123 606.836731,912.289429 606.836365,896.305481 
	C606.834106,804.817078 606.853027,713.328674 606.860413,621.840271 
	C606.862061,601.521179 606.830017,581.202087 606.845154,560.882996 
	C606.852539,550.976318 609.669128,541.946777 617.423035,535.538818 
	C626.897095,527.709351 637.867981,528.683350 647.985657,533.667969 
	C660.717529,539.940430 672.858276,547.423645 685.187012,554.501282 
	C710.441772,568.999390 735.656677,583.567078 760.878967,598.121765 
	C787.529663,613.500732 814.167297,628.902222 840.815247,644.285828 
	C866.174500,658.925415 891.569824,673.502869 916.893433,688.203796 
	C939.066711,701.075806 961.373291,713.738892 983.198242,727.180847 
	C993.213684,733.349304 999.117798,742.786682 996.990723,755.329102 
	C995.177124,766.023193 987.640015,772.537109 979.010315,777.847656 
	C970.561829,783.046753 961.869629,787.850037 952.932983,792.936768 
	"/>
</svg>